<?xml version="1.0" encoding="utf-8" standalone="no"?>
<!DOCTYPE svg PUBLIC "-//W3C//DTD SVG 1.1//EN"
  "http://www.w3.org/Graphics/SVG/1.1/DTD/svg11.dtd">
<svg xmlns:xlink="http://www.w3.org/1999/xlink" width="460.8pt" height="345.6pt" viewBox="0 0 460.8 345.6" xmlns="http://www.w3.org/2000/svg" version="1.1">
 <metadata>
  <rdf:RDF xmlns:dc="http://purl.org/dc/elements/1.1/" xmlns:cc="http://creativecommons.org/ns#" xmlns:rdf="http://www.w3.org/1999/02/22-rdf-syntax-ns#">
   <cc:Work>
    <dc:type rdf:resource="http://purl.org/dc/dcmitype/StillImage"/>
    <dc:date>2026-02-03T02:18:03.783588</dc:date>
    <dc:format>image/svg+xml</dc:format>
    <dc:creator>
     <cc:Agent>
      <dc:title>Matplotlib v3.9.1, https://matplotlib.org/</dc:title>
     </cc:Agent>
    </dc:creator>
   </cc:Work>
  </rdf:RDF>
 </metadata>
 <defs>
  <style type="text/css">*{stroke-linejoin: round; stroke-linecap: butt}</style>
 </defs>
 <g id="figure_1">
  <g id="patch_1">
   <path d="M 0 345.6 
L 460.8 345.6 
L 460.8 0 
L 0 0 
L 0 345.6 
z
" style="fill: none"/>
  </g>
  <g id="axes_1">
   <g id="patch_2">
    <path d="M 54.81 236.936357 
L 447.84 236.936357 
L 447.84 14.45202 
L 54.81 14.45202 
L 54.81 236.936357 
z
" style="fill: none"/>
   </g>
   <g id="matplotlib.axis_1">
    <g id="xtick_1">
     <g id="text_1">
      <!-- Pred B cells -->
      <g style="fill: #262626" transform="translate(36.248553 297.363955) rotate(-45) scale(0.11 -0.11)">
       <defs>
        <path id="DejaVuSans-50" d="M 1259 4147 
L 1259 2394 
L 2053 2394 
Q 2494 2394 2734 2622 
Q 2975 2850 2975 3272 
Q 2975 3691 2734 3919 
Q 2494 4147 2053 4147 
L 1259 4147 
z
M 628 4666 
L 2053 4666 
Q 2838 4666 3239 4311 
Q 3641 3956 3641 3272 
Q 3641 2581 3239 2228 
Q 2838 1875 2053 1875 
L 1259 1875 
L 1259 0 
L 628 0 
L 628 4666 
z
" transform="scale(0.015625)"/>
        <path id="DejaVuSans-72" d="M 2631 2963 
Q 2534 3019 2420 3045 
Q 2306 3072 2169 3072 
Q 1681 3072 1420 2755 
Q 1159 2438 1159 1844 
L 1159 0 
L 581 0 
L 581 3500 
L 1159 3500 
L 1159 2956 
Q 1341 3275 1631 3429 
Q 1922 3584 2338 3584 
Q 2397 3584 2469 3576 
Q 2541 3569 2628 3553 
L 2631 2963 
z
" transform="scale(0.015625)"/>
        <path id="DejaVuSans-65" d="M 3597 1894 
L 3597 1613 
L 953 1613 
Q 991 1019 1311 708 
Q 1631 397 2203 397 
Q 2534 397 2845 478 
Q 3156 559 3463 722 
L 3463 178 
Q 3153 47 2828 -22 
Q 2503 -91 2169 -91 
Q 1331 -91 842 396 
Q 353 884 353 1716 
Q 353 2575 817 3079 
Q 1281 3584 2069 3584 
Q 2775 3584 3186 3129 
Q 3597 2675 3597 1894 
z
M 3022 2063 
Q 3016 2534 2758 2815 
Q 2500 3097 2075 3097 
Q 1594 3097 1305 2825 
Q 1016 2553 972 2059 
L 3022 2063 
z
" transform="scale(0.015625)"/>
        <path id="DejaVuSans-64" d="M 2906 2969 
L 2906 4863 
L 3481 4863 
L 3481 0 
L 2906 0 
L 2906 525 
Q 2725 213 2448 61 
Q 2172 -91 1784 -91 
Q 1150 -91 751 415 
Q 353 922 353 1747 
Q 353 2572 751 3078 
Q 1150 3584 1784 3584 
Q 2172 3584 2448 3432 
Q 2725 3281 2906 2969 
z
M 947 1747 
Q 947 1113 1208 752 
Q 1469 391 1925 391 
Q 2381 391 2643 752 
Q 2906 1113 2906 1747 
Q 2906 2381 2643 2742 
Q 2381 3103 1925 3103 
Q 1469 3103 1208 2742 
Q 947 2381 947 1747 
z
" transform="scale(0.015625)"/>
        <path id="DejaVuSans-20" transform="scale(0.015625)"/>
        <path id="DejaVuSans-42" d="M 1259 2228 
L 1259 519 
L 2272 519 
Q 2781 519 3026 730 
Q 3272 941 3272 1375 
Q 3272 1813 3026 2020 
Q 2781 2228 2272 2228 
L 1259 2228 
z
M 1259 4147 
L 1259 2741 
L 2194 2741 
Q 2656 2741 2882 2914 
Q 3109 3088 3109 3444 
Q 3109 3797 2882 3972 
Q 2656 4147 2194 4147 
L 1259 4147 
z
M 628 4666 
L 2241 4666 
Q 2963 4666 3353 4366 
Q 3744 4066 3744 3513 
Q 3744 3084 3544 2831 
Q 3344 2578 2956 2516 
Q 3422 2416 3680 2098 
Q 3938 1781 3938 1306 
Q 3938 681 3513 340 
Q 3088 0 2303 0 
L 628 0 
L 628 4666 
z
" transform="scale(0.015625)"/>
        <path id="DejaVuSans-63" d="M 3122 3366 
L 3122 2828 
Q 2878 2963 2633 3030 
Q 2388 3097 2138 3097 
Q 1578 3097 1268 2742 
Q 959 2388 959 1747 
Q 959 1106 1268 751 
Q 1578 397 2138 397 
Q 2388 397 2633 464 
Q 2878 531 3122 666 
L 3122 134 
Q 2881 22 2623 -34 
Q 2366 -91 2075 -91 
Q 1284 -91 818 406 
Q 353 903 353 1747 
Q 353 2603 823 3093 
Q 1294 3584 2113 3584 
Q 2378 3584 2631 3529 
Q 2884 3475 3122 3366 
z
" transform="scale(0.015625)"/>
        <path id="DejaVuSans-6c" d="M 603 4863 
L 1178 4863 
L 1178 0 
L 603 0 
L 603 4863 
z
" transform="scale(0.015625)"/>
        <path id="DejaVuSans-73" d="M 2834 3397 
L 2834 2853 
Q 2591 2978 2328 3040 
Q 2066 3103 1784 3103 
Q 1356 3103 1142 2972 
Q 928 2841 928 2578 
Q 928 2378 1081 2264 
Q 1234 2150 1697 2047 
L 1894 2003 
Q 2506 1872 2764 1633 
Q 3022 1394 3022 966 
Q 3022 478 2636 193 
Q 2250 -91 1575 -91 
Q 1294 -91 989 -36 
Q 684 19 347 128 
L 347 722 
Q 666 556 975 473 
Q 1284 391 1588 391 
Q 1994 391 2212 530 
Q 2431 669 2431 922 
Q 2431 1156 2273 1281 
Q 2116 1406 1581 1522 
L 1381 1569 
Q 847 1681 609 1914 
Q 372 2147 372 2553 
Q 372 3047 722 3315 
Q 1072 3584 1716 3584 
Q 2034 3584 2315 3537 
Q 2597 3491 2834 3397 
z
" transform="scale(0.015625)"/>
       </defs>
       <use xlink:href="#DejaVuSans-50"/>
       <use xlink:href="#DejaVuSans-72" x="58.552734"/>
       <use xlink:href="#DejaVuSans-65" x="97.416016"/>
       <use xlink:href="#DejaVuSans-64" x="158.939453"/>
       <use xlink:href="#DejaVuSans-20" x="222.416016"/>
       <use xlink:href="#DejaVuSans-42" x="254.203125"/>
       <use xlink:href="#DejaVuSans-20" x="322.806641"/>
       <use xlink:href="#DejaVuSans-63" x="354.59375"/>
       <use xlink:href="#DejaVuSans-65" x="409.574219"/>
       <use xlink:href="#DejaVuSans-6c" x="471.097656"/>
       <use xlink:href="#DejaVuSans-6c" x="498.880859"/>
       <use xlink:href="#DejaVuSans-73" x="526.664062"/>
      </g>
     </g>
    </g>
    <g id="xtick_2">
     <g id="text_2">
      <!-- Pred CD4 T cells -->
      <g style="fill: #262626" transform="translate(74.140077 315.619574) rotate(-45) scale(0.11 -0.11)">
       <defs>
        <path id="DejaVuSans-43" d="M 4122 4306 
L 4122 3641 
Q 3803 3938 3442 4084 
Q 3081 4231 2675 4231 
Q 1875 4231 1450 3742 
Q 1025 3253 1025 2328 
Q 1025 1406 1450 917 
Q 1875 428 2675 428 
Q 3081 428 3442 575 
Q 3803 722 4122 1019 
L 4122 359 
Q 3791 134 3420 21 
Q 3050 -91 2638 -91 
Q 1578 -91 968 557 
Q 359 1206 359 2328 
Q 359 3453 968 4101 
Q 1578 4750 2638 4750 
Q 3056 4750 3426 4639 
Q 3797 4528 4122 4306 
z
" transform="scale(0.015625)"/>
        <path id="DejaVuSans-44" d="M 1259 4147 
L 1259 519 
L 2022 519 
Q 2988 519 3436 956 
Q 3884 1394 3884 2338 
Q 3884 3275 3436 3711 
Q 2988 4147 2022 4147 
L 1259 4147 
z
M 628 4666 
L 1925 4666 
Q 3281 4666 3915 4102 
Q 4550 3538 4550 2338 
Q 4550 1131 3912 565 
Q 3275 0 1925 0 
L 628 0 
L 628 4666 
z
" transform="scale(0.015625)"/>
        <path id="DejaVuSans-34" d="M 2419 4116 
L 825 1625 
L 2419 1625 
L 2419 4116 
z
M 2253 4666 
L 3047 4666 
L 3047 1625 
L 3713 1625 
L 3713 1100 
L 3047 1100 
L 3047 0 
L 2419 0 
L 2419 1100 
L 313 1100 
L 313 1709 
L 2253 4666 
z
" transform="scale(0.015625)"/>
        <path id="DejaVuSans-54" d="M -19 4666 
L 3928 4666 
L 3928 4134 
L 2272 4134 
L 2272 0 
L 1638 0 
L 1638 4134 
L -19 4134 
L -19 4666 
z
" transform="scale(0.015625)"/>
       </defs>
       <use xlink:href="#DejaVuSans-50"/>
       <use xlink:href="#DejaVuSans-72" x="58.552734"/>
       <use xlink:href="#DejaVuSans-65" x="97.416016"/>
       <use xlink:href="#DejaVuSans-64" x="158.939453"/>
       <use xlink:href="#DejaVuSans-20" x="222.416016"/>
       <use xlink:href="#DejaVuSans-43" x="254.203125"/>
       <use xlink:href="#DejaVuSans-44" x="324.027344"/>
       <use xlink:href="#DejaVuSans-34" x="401.029297"/>
       <use xlink:href="#DejaVuSans-20" x="464.652344"/>
       <use xlink:href="#DejaVuSans-54" x="496.439453"/>
       <use xlink:href="#DejaVuSans-20" x="557.523438"/>
       <use xlink:href="#DejaVuSans-63" x="589.310547"/>
       <use xlink:href="#DejaVuSans-65" x="644.291016"/>
       <use xlink:href="#DejaVuSans-6c" x="705.814453"/>
       <use xlink:href="#DejaVuSans-6c" x="733.597656"/>
       <use xlink:href="#DejaVuSans-73" x="761.380859"/>
      </g>
     </g>
    </g>
    <g id="xtick_3">
     <g id="text_3">
      <!-- Pred CD8 T cells -->
      <g style="fill: #262626" transform="translate(130.28722 315.619574) rotate(-45) scale(0.11 -0.11)">
       <defs>
        <path id="DejaVuSans-38" d="M 2034 2216 
Q 1584 2216 1326 1975 
Q 1069 1734 1069 1313 
Q 1069 891 1326 650 
Q 1584 409 2034 409 
Q 2484 409 2743 651 
Q 3003 894 3003 1313 
Q 3003 1734 2745 1975 
Q 2488 2216 2034 2216 
z
M 1403 2484 
Q 997 2584 770 2862 
Q 544 3141 544 3541 
Q 544 4100 942 4425 
Q 1341 4750 2034 4750 
Q 2731 4750 3128 4425 
Q 3525 4100 3525 3541 
Q 3525 3141 3298 2862 
Q 3072 2584 2669 2484 
Q 3125 2378 3379 2068 
Q 3634 1759 3634 1313 
Q 3634 634 3220 271 
Q 2806 -91 2034 -91 
Q 1263 -91 848 271 
Q 434 634 434 1313 
Q 434 1759 690 2068 
Q 947 2378 1403 2484 
z
M 1172 3481 
Q 1172 3119 1398 2916 
Q 1625 2713 2034 2713 
Q 2441 2713 2670 2916 
Q 2900 3119 2900 3481 
Q 2900 3844 2670 4047 
Q 2441 4250 2034 4250 
Q 1625 4250 1398 4047 
Q 1172 3844 1172 3481 
z
" transform="scale(0.015625)"/>
       </defs>
       <use xlink:href="#DejaVuSans-50"/>
       <use xlink:href="#DejaVuSans-72" x="58.552734"/>
       <use xlink:href="#DejaVuSans-65" x="97.416016"/>
       <use xlink:href="#DejaVuSans-64" x="158.939453"/>
       <use xlink:href="#DejaVuSans-20" x="222.416016"/>
       <use xlink:href="#DejaVuSans-43" x="254.203125"/>
       <use xlink:href="#DejaVuSans-44" x="324.027344"/>
       <use xlink:href="#DejaVuSans-38" x="401.029297"/>
       <use xlink:href="#DejaVuSans-20" x="464.652344"/>
       <use xlink:href="#DejaVuSans-54" x="496.439453"/>
       <use xlink:href="#DejaVuSans-20" x="557.523438"/>
       <use xlink:href="#DejaVuSans-63" x="589.310547"/>
       <use xlink:href="#DejaVuSans-65" x="644.291016"/>
       <use xlink:href="#DejaVuSans-6c" x="705.814453"/>
       <use xlink:href="#DejaVuSans-6c" x="733.597656"/>
       <use xlink:href="#DejaVuSans-73" x="761.380859"/>
      </g>
     </g>
    </g>
    <g id="xtick_4">
     <g id="text_4">
      <!-- Pred DC -->
      <g style="fill: #262626" transform="translate(218.514472 283.539465) rotate(-45) scale(0.11 -0.11)">
       <use xlink:href="#DejaVuSans-50"/>
       <use xlink:href="#DejaVuSans-72" x="58.552734"/>
       <use xlink:href="#DejaVuSans-65" x="97.416016"/>
       <use xlink:href="#DejaVuSans-64" x="158.939453"/>
       <use xlink:href="#DejaVuSans-20" x="222.416016"/>
       <use xlink:href="#DejaVuSans-44" x="254.203125"/>
       <use xlink:href="#DejaVuSans-43" x="331.205078"/>
      </g>
     </g>
    </g>
    <g id="xtick_5">
     <g id="text_5">
      <!-- Pred Monocytes -->
      <g style="fill: #262626" transform="translate(244.155371 314.045709) rotate(-45) scale(0.11 -0.11)">
       <defs>
        <path id="DejaVuSans-4d" d="M 628 4666 
L 1569 4666 
L 2759 1491 
L 3956 4666 
L 4897 4666 
L 4897 0 
L 4281 0 
L 4281 4097 
L 3078 897 
L 2444 897 
L 1241 4097 
L 1241 0 
L 628 0 
L 628 4666 
z
" transform="scale(0.015625)"/>
        <path id="DejaVuSans-6f" d="M 1959 3097 
Q 1497 3097 1228 2736 
Q 959 2375 959 1747 
Q 959 1119 1226 758 
Q 1494 397 1959 397 
Q 2419 397 2687 759 
Q 2956 1122 2956 1747 
Q 2956 2369 2687 2733 
Q 2419 3097 1959 3097 
z
M 1959 3584 
Q 2709 3584 3137 3096 
Q 3566 2609 3566 1747 
Q 3566 888 3137 398 
Q 2709 -91 1959 -91 
Q 1206 -91 779 398 
Q 353 888 353 1747 
Q 353 2609 779 3096 
Q 1206 3584 1959 3584 
z
" transform="scale(0.015625)"/>
        <path id="DejaVuSans-6e" d="M 3513 2113 
L 3513 0 
L 2938 0 
L 2938 2094 
Q 2938 2591 2744 2837 
Q 2550 3084 2163 3084 
Q 1697 3084 1428 2787 
Q 1159 2491 1159 1978 
L 1159 0 
L 581 0 
L 581 3500 
L 1159 3500 
L 1159 2956 
Q 1366 3272 1645 3428 
Q 1925 3584 2291 3584 
Q 2894 3584 3203 3211 
Q 3513 2838 3513 2113 
z
" transform="scale(0.015625)"/>
        <path id="DejaVuSans-79" d="M 2059 -325 
Q 1816 -950 1584 -1140 
Q 1353 -1331 966 -1331 
L 506 -1331 
L 506 -850 
L 844 -850 
Q 1081 -850 1212 -737 
Q 1344 -625 1503 -206 
L 1606 56 
L 191 3500 
L 800 3500 
L 1894 763 
L 2988 3500 
L 3597 3500 
L 2059 -325 
z
" transform="scale(0.015625)"/>
        <path id="DejaVuSans-74" d="M 1172 4494 
L 1172 3500 
L 2356 3500 
L 2356 3053 
L 1172 3053 
L 1172 1153 
Q 1172 725 1289 603 
Q 1406 481 1766 481 
L 2356 481 
L 2356 0 
L 1766 0 
Q 1100 0 847 248 
Q 594 497 594 1153 
L 594 3053 
L 172 3053 
L 172 3500 
L 594 3500 
L 594 4494 
L 1172 4494 
z
" transform="scale(0.015625)"/>
       </defs>
       <use xlink:href="#DejaVuSans-50"/>
       <use xlink:href="#DejaVuSans-72" x="58.552734"/>
       <use xlink:href="#DejaVuSans-65" x="97.416016"/>
       <use xlink:href="#DejaVuSans-64" x="158.939453"/>
       <use xlink:href="#DejaVuSans-20" x="222.416016"/>
       <use xlink:href="#DejaVuSans-4d" x="254.203125"/>
       <use xlink:href="#DejaVuSans-6f" x="340.482422"/>
       <use xlink:href="#DejaVuSans-6e" x="401.664062"/>
       <use xlink:href="#DejaVuSans-6f" x="465.042969"/>
       <use xlink:href="#DejaVuSans-63" x="526.224609"/>
       <use xlink:href="#DejaVuSans-79" x="581.205078"/>
       <use xlink:href="#DejaVuSans-74" x="640.384766"/>
       <use xlink:href="#DejaVuSans-65" x="679.59375"/>
       <use xlink:href="#DejaVuSans-73" x="741.117188"/>
      </g>
     </g>
    </g>
    <g id="xtick_6">
     <g id="text_6">
      <!-- Pred NK cells -->
      <g style="fill: #262626" transform="translate(311.400997 302.947226) rotate(-45) scale(0.11 -0.11)">
       <defs>
        <path id="DejaVuSans-4e" d="M 628 4666 
L 1478 4666 
L 3547 763 
L 3547 4666 
L 4159 4666 
L 4159 0 
L 3309 0 
L 1241 3903 
L 1241 0 
L 628 0 
L 628 4666 
z
" transform="scale(0.015625)"/>
        <path id="DejaVuSans-4b" d="M 628 4666 
L 1259 4666 
L 1259 2694 
L 3353 4666 
L 4166 4666 
L 1850 2491 
L 4331 0 
L 3500 0 
L 1259 2247 
L 1259 0 
L 628 0 
L 628 4666 
z
" transform="scale(0.015625)"/>
       </defs>
       <use xlink:href="#DejaVuSans-50"/>
       <use xlink:href="#DejaVuSans-72" x="58.552734"/>
       <use xlink:href="#DejaVuSans-65" x="97.416016"/>
       <use xlink:href="#DejaVuSans-64" x="158.939453"/>
       <use xlink:href="#DejaVuSans-20" x="222.416016"/>
       <use xlink:href="#DejaVuSans-4e" x="254.203125"/>
       <use xlink:href="#DejaVuSans-4b" x="329.007812"/>
       <use xlink:href="#DejaVuSans-20" x="394.583984"/>
       <use xlink:href="#DejaVuSans-63" x="426.371094"/>
       <use xlink:href="#DejaVuSans-65" x="481.351562"/>
       <use xlink:href="#DejaVuSans-6c" x="542.875"/>
       <use xlink:href="#DejaVuSans-6c" x="570.658203"/>
       <use xlink:href="#DejaVuSans-73" x="598.441406"/>
      </g>
     </g>
    </g>
    <g id="xtick_7">
     <g id="text_7">
      <!-- Pred Tregs -->
      <g style="fill: #262626" transform="translate(377.97454 292.520826) rotate(-45) scale(0.11 -0.11)">
       <defs>
        <path id="DejaVuSans-67" d="M 2906 1791 
Q 2906 2416 2648 2759 
Q 2391 3103 1925 3103 
Q 1463 3103 1205 2759 
Q 947 2416 947 1791 
Q 947 1169 1205 825 
Q 1463 481 1925 481 
Q 2391 481 2648 825 
Q 2906 1169 2906 1791 
z
M 3481 434 
Q 3481 -459 3084 -895 
Q 2688 -1331 1869 -1331 
Q 1566 -1331 1297 -1286 
Q 1028 -1241 775 -1147 
L 775 -588 
Q 1028 -725 1275 -790 
Q 1522 -856 1778 -856 
Q 2344 -856 2625 -561 
Q 2906 -266 2906 331 
L 2906 616 
Q 2728 306 2450 153 
Q 2172 0 1784 0 
Q 1141 0 747 490 
Q 353 981 353 1791 
Q 353 2603 747 3093 
Q 1141 3584 1784 3584 
Q 2172 3584 2450 3431 
Q 2728 3278 2906 2969 
L 2906 3500 
L 3481 3500 
L 3481 434 
z
" transform="scale(0.015625)"/>
       </defs>
       <use xlink:href="#DejaVuSans-50"/>
       <use xlink:href="#DejaVuSans-72" x="58.552734"/>
       <use xlink:href="#DejaVuSans-65" x="97.416016"/>
       <use xlink:href="#DejaVuSans-64" x="158.939453"/>
       <use xlink:href="#DejaVuSans-20" x="222.416016"/>
       <use xlink:href="#DejaVuSans-54" x="254.203125"/>
       <use xlink:href="#DejaVuSans-72" x="300.537109"/>
       <use xlink:href="#DejaVuSans-65" x="339.400391"/>
       <use xlink:href="#DejaVuSans-67" x="400.923828"/>
       <use xlink:href="#DejaVuSans-73" x="464.400391"/>
      </g>
     </g>
    </g>
    <g id="text_8">
     <!-- variable -->
     <g style="fill: #262626" transform="translate(227.11875 330.355316) scale(0.12 -0.12)">
      <defs>
       <path id="DejaVuSans-76" d="M 191 3500 
L 800 3500 
L 1894 563 
L 2988 3500 
L 3597 3500 
L 2284 0 
L 1503 0 
L 191 3500 
z
" transform="scale(0.015625)"/>
       <path id="DejaVuSans-61" d="M 2194 1759 
Q 1497 1759 1228 1600 
Q 959 1441 959 1056 
Q 959 750 1161 570 
Q 1363 391 1709 391 
Q 2188 391 2477 730 
Q 2766 1069 2766 1631 
L 2766 1759 
L 2194 1759 
z
M 3341 1997 
L 3341 0 
L 2766 0 
L 2766 531 
Q 2569 213 2275 61 
Q 1981 -91 1556 -91 
Q 1019 -91 701 211 
Q 384 513 384 1019 
Q 384 1609 779 1909 
Q 1175 2209 1959 2209 
L 2766 2209 
L 2766 2266 
Q 2766 2663 2505 2880 
Q 2244 3097 1772 3097 
Q 1472 3097 1187 3025 
Q 903 2953 641 2809 
L 641 3341 
Q 956 3463 1253 3523 
Q 1550 3584 1831 3584 
Q 2591 3584 2966 3190 
Q 3341 2797 3341 1997 
z
" transform="scale(0.015625)"/>
       <path id="DejaVuSans-69" d="M 603 3500 
L 1178 3500 
L 1178 0 
L 603 0 
L 603 3500 
z
M 603 4863 
L 1178 4863 
L 1178 4134 
L 603 4134 
L 603 4863 
z
" transform="scale(0.015625)"/>
       <path id="DejaVuSans-62" d="M 3116 1747 
Q 3116 2381 2855 2742 
Q 2594 3103 2138 3103 
Q 1681 3103 1420 2742 
Q 1159 2381 1159 1747 
Q 1159 1113 1420 752 
Q 1681 391 2138 391 
Q 2594 391 2855 752 
Q 3116 1113 3116 1747 
z
M 1159 2969 
Q 1341 3281 1617 3432 
Q 1894 3584 2278 3584 
Q 2916 3584 3314 3078 
Q 3713 2572 3713 1747 
Q 3713 922 3314 415 
Q 2916 -91 2278 -91 
Q 1894 -91 1617 61 
Q 1341 213 1159 525 
L 1159 0 
L 581 0 
L 581 4863 
L 1159 4863 
L 1159 2969 
z
" transform="scale(0.015625)"/>
      </defs>
      <use xlink:href="#DejaVuSans-76"/>
      <use xlink:href="#DejaVuSans-61" x="59.179688"/>
      <use xlink:href="#DejaVuSans-72" x="120.458984"/>
      <use xlink:href="#DejaVuSans-69" x="161.572266"/>
      <use xlink:href="#DejaVuSans-61" x="189.355469"/>
      <use xlink:href="#DejaVuSans-62" x="250.634766"/>
      <use xlink:href="#DejaVuSans-6c" x="314.111328"/>
      <use xlink:href="#DejaVuSans-65" x="341.894531"/>
     </g>
    </g>
   </g>
   <g id="matplotlib.axis_2">
    <g id="ytick_1">
     <g id="text_9">
      <!-- 0.0 -->
      <g style="fill: #262626" transform="translate(27.816563 231.143901) scale(0.11 -0.11)">
       <defs>
        <path id="DejaVuSans-30" d="M 2034 4250 
Q 1547 4250 1301 3770 
Q 1056 3291 1056 2328 
Q 1056 1369 1301 889 
Q 1547 409 2034 409 
Q 2525 409 2770 889 
Q 3016 1369 3016 2328 
Q 3016 3291 2770 3770 
Q 2525 4250 2034 4250 
z
M 2034 4750 
Q 2819 4750 3233 4129 
Q 3647 3509 3647 2328 
Q 3647 1150 3233 529 
Q 2819 -91 2034 -91 
Q 1250 -91 836 529 
Q 422 1150 422 2328 
Q 422 3509 836 4129 
Q 1250 4750 2034 4750 
z
" transform="scale(0.015625)"/>
        <path id="DejaVuSans-2e" d="M 684 794 
L 1344 794 
L 1344 0 
L 684 0 
L 684 794 
z
" transform="scale(0.015625)"/>
       </defs>
       <use xlink:href="#DejaVuSans-30"/>
       <use xlink:href="#DejaVuSans-2e" x="63.623047"/>
       <use xlink:href="#DejaVuSans-30" x="95.410156"/>
      </g>
     </g>
    </g>
    <g id="ytick_2">
     <g id="text_10">
      <!-- 0.1 -->
      <g style="fill: #262626" transform="translate(27.816563 204.843232) scale(0.11 -0.11)">
       <defs>
        <path id="DejaVuSans-31" d="M 794 531 
L 1825 531 
L 1825 4091 
L 703 3866 
L 703 4441 
L 1819 4666 
L 2450 4666 
L 2450 531 
L 3481 531 
L 3481 0 
L 794 0 
L 794 531 
z
" transform="scale(0.015625)"/>
       </defs>
       <use xlink:href="#DejaVuSans-30"/>
       <use xlink:href="#DejaVuSans-2e" x="63.623047"/>
       <use xlink:href="#DejaVuSans-31" x="95.410156"/>
      </g>
     </g>
    </g>
    <g id="ytick_3">
     <g id="text_11">
      <!-- 0.2 -->
      <g style="fill: #262626" transform="translate(27.816563 178.542563) scale(0.11 -0.11)">
       <defs>
        <path id="DejaVuSans-32" d="M 1228 531 
L 3431 531 
L 3431 0 
L 469 0 
L 469 531 
Q 828 903 1448 1529 
Q 2069 2156 2228 2338 
Q 2531 2678 2651 2914 
Q 2772 3150 2772 3378 
Q 2772 3750 2511 3984 
Q 2250 4219 1831 4219 
Q 1534 4219 1204 4116 
Q 875 4013 500 3803 
L 500 4441 
Q 881 4594 1212 4672 
Q 1544 4750 1819 4750 
Q 2544 4750 2975 4387 
Q 3406 4025 3406 3419 
Q 3406 3131 3298 2873 
Q 3191 2616 2906 2266 
Q 2828 2175 2409 1742 
Q 1991 1309 1228 531 
z
" transform="scale(0.015625)"/>
       </defs>
       <use xlink:href="#DejaVuSans-30"/>
       <use xlink:href="#DejaVuSans-2e" x="63.623047"/>
       <use xlink:href="#DejaVuSans-32" x="95.410156"/>
      </g>
     </g>
    </g>
    <g id="ytick_4">
     <g id="text_12">
      <!-- 0.3 -->
      <g style="fill: #262626" transform="translate(27.816563 152.241893) scale(0.11 -0.11)">
       <defs>
        <path id="DejaVuSans-33" d="M 2597 2516 
Q 3050 2419 3304 2112 
Q 3559 1806 3559 1356 
Q 3559 666 3084 287 
Q 2609 -91 1734 -91 
Q 1441 -91 1130 -33 
Q 819 25 488 141 
L 488 750 
Q 750 597 1062 519 
Q 1375 441 1716 441 
Q 2309 441 2620 675 
Q 2931 909 2931 1356 
Q 2931 1769 2642 2001 
Q 2353 2234 1838 2234 
L 1294 2234 
L 1294 2753 
L 1863 2753 
Q 2328 2753 2575 2939 
Q 2822 3125 2822 3475 
Q 2822 3834 2567 4026 
Q 2313 4219 1838 4219 
Q 1578 4219 1281 4162 
Q 984 4106 628 3988 
L 628 4550 
Q 988 4650 1302 4700 
Q 1616 4750 1894 4750 
Q 2613 4750 3031 4423 
Q 3450 4097 3450 3541 
Q 3450 3153 3228 2886 
Q 3006 2619 2597 2516 
z
" transform="scale(0.015625)"/>
       </defs>
       <use xlink:href="#DejaVuSans-30"/>
       <use xlink:href="#DejaVuSans-2e" x="63.623047"/>
       <use xlink:href="#DejaVuSans-33" x="95.410156"/>
      </g>
     </g>
    </g>
    <g id="ytick_5">
     <g id="text_13">
      <!-- 0.4 -->
      <g style="fill: #262626" transform="translate(27.816563 125.941224) scale(0.11 -0.11)">
       <use xlink:href="#DejaVuSans-30"/>
       <use xlink:href="#DejaVuSans-2e" x="63.623047"/>
       <use xlink:href="#DejaVuSans-34" x="95.410156"/>
      </g>
     </g>
    </g>
    <g id="ytick_6">
     <g id="text_14">
      <!-- 0.5 -->
      <g style="fill: #262626" transform="translate(27.816563 99.640555) scale(0.11 -0.11)">
       <defs>
        <path id="DejaVuSans-35" d="M 691 4666 
L 3169 4666 
L 3169 4134 
L 1269 4134 
L 1269 2991 
Q 1406 3038 1543 3061 
Q 1681 3084 1819 3084 
Q 2600 3084 3056 2656 
Q 3513 2228 3513 1497 
Q 3513 744 3044 326 
Q 2575 -91 1722 -91 
Q 1428 -91 1123 -41 
Q 819 9 494 109 
L 494 744 
Q 775 591 1075 516 
Q 1375 441 1709 441 
Q 2250 441 2565 725 
Q 2881 1009 2881 1497 
Q 2881 1984 2565 2268 
Q 2250 2553 1709 2553 
Q 1456 2553 1204 2497 
Q 953 2441 691 2322 
L 691 4666 
z
" transform="scale(0.015625)"/>
       </defs>
       <use xlink:href="#DejaVuSans-30"/>
       <use xlink:href="#DejaVuSans-2e" x="63.623047"/>
       <use xlink:href="#DejaVuSans-35" x="95.410156"/>
      </g>
     </g>
    </g>
    <g id="ytick_7">
     <g id="text_15">
      <!-- 0.6 -->
      <g style="fill: #262626" transform="translate(27.816563 73.339885) scale(0.11 -0.11)">
       <defs>
        <path id="DejaVuSans-36" d="M 2113 2584 
Q 1688 2584 1439 2293 
Q 1191 2003 1191 1497 
Q 1191 994 1439 701 
Q 1688 409 2113 409 
Q 2538 409 2786 701 
Q 3034 994 3034 1497 
Q 3034 2003 2786 2293 
Q 2538 2584 2113 2584 
z
M 3366 4563 
L 3366 3988 
Q 3128 4100 2886 4159 
Q 2644 4219 2406 4219 
Q 1781 4219 1451 3797 
Q 1122 3375 1075 2522 
Q 1259 2794 1537 2939 
Q 1816 3084 2150 3084 
Q 2853 3084 3261 2657 
Q 3669 2231 3669 1497 
Q 3669 778 3244 343 
Q 2819 -91 2113 -91 
Q 1303 -91 875 529 
Q 447 1150 447 2328 
Q 447 3434 972 4092 
Q 1497 4750 2381 4750 
Q 2619 4750 2861 4703 
Q 3103 4656 3366 4563 
z
" transform="scale(0.015625)"/>
       </defs>
       <use xlink:href="#DejaVuSans-30"/>
       <use xlink:href="#DejaVuSans-2e" x="63.623047"/>
       <use xlink:href="#DejaVuSans-36" x="95.410156"/>
      </g>
     </g>
    </g>
    <g id="ytick_8">
     <g id="text_16">
      <!-- 0.7 -->
      <g style="fill: #262626" transform="translate(27.816563 47.039216) scale(0.11 -0.11)">
       <defs>
        <path id="DejaVuSans-37" d="M 525 4666 
L 3525 4666 
L 3525 4397 
L 1831 0 
L 1172 0 
L 2766 4134 
L 525 4134 
L 525 4666 
z
" transform="scale(0.015625)"/>
       </defs>
       <use xlink:href="#DejaVuSans-30"/>
       <use xlink:href="#DejaVuSans-2e" x="63.623047"/>
       <use xlink:href="#DejaVuSans-37" x="95.410156"/>
      </g>
     </g>
    </g>
    <g id="ytick_9">
     <g id="text_17">
      <!-- 0.8 -->
      <g style="fill: #262626" transform="translate(27.816563 20.738547) scale(0.11 -0.11)">
       <use xlink:href="#DejaVuSans-30"/>
       <use xlink:href="#DejaVuSans-2e" x="63.623047"/>
       <use xlink:href="#DejaVuSans-38" x="95.410156"/>
      </g>
     </g>
    </g>
    <g id="text_18">
     <!-- value -->
     <g style="fill: #262626" transform="translate(21.320937 142.083564) rotate(-90) scale(0.12 -0.12)">
      <defs>
       <path id="DejaVuSans-75" d="M 544 1381 
L 544 3500 
L 1119 3500 
L 1119 1403 
Q 1119 906 1312 657 
Q 1506 409 1894 409 
Q 2359 409 2629 706 
Q 2900 1003 2900 1516 
L 2900 3500 
L 3475 3500 
L 3475 0 
L 2900 0 
L 2900 538 
Q 2691 219 2414 64 
Q 2138 -91 1772 -91 
Q 1169 -91 856 284 
Q 544 659 544 1381 
z
M 1991 3584 
L 1991 3584 
z
" transform="scale(0.015625)"/>
      </defs>
      <use xlink:href="#DejaVuSans-76"/>
      <use xlink:href="#DejaVuSans-61" x="59.179688"/>
      <use xlink:href="#DejaVuSans-6c" x="120.458984"/>
      <use xlink:href="#DejaVuSans-75" x="148.242188"/>
      <use xlink:href="#DejaVuSans-65" x="211.621094"/>
     </g>
    </g>
   </g>
   <g id="patch_3">
    <path d="M 60.424714 211.025175 
L 105.342429 211.025175 
L 105.342429 161.455549 
L 60.424714 161.455549 
L 60.424714 211.025175 
z
" clip-path="url(#pcba7cde2ac)" style="fill: #5875a4; stroke: #494949; stroke-linejoin: miter"/>
   </g>
   <g id="line2d_1">
    <path d="M 82.883571 211.025175 
L 82.883571 226.479011 
" clip-path="url(#pcba7cde2ac)" style="fill: none; stroke: #494949"/>
   </g>
   <g id="line2d_2">
    <path d="M 82.883571 161.455549 
L 82.883571 88.486585 
" clip-path="url(#pcba7cde2ac)" style="fill: none; stroke: #494949"/>
   </g>
   <g id="line2d_3">
    <path d="M 71.654143 226.479011 
L 94.113 226.479011 
" clip-path="url(#pcba7cde2ac)" style="fill: none; stroke: #494949; stroke-linecap: round"/>
   </g>
   <g id="line2d_4">
    <path d="M 71.654143 88.486585 
L 94.113 88.486585 
" clip-path="url(#pcba7cde2ac)" style="fill: none; stroke: #494949; stroke-linecap: round"/>
   </g>
   <g id="line2d_5">
    <defs>
     <path id="m33ef7dc35b" d="M 0 3 
C 0.795609 3 1.55874 2.683901 2.12132 2.12132 
C 2.683901 1.55874 3 0.795609 3 0 
C 3 -0.795609 2.683901 -1.55874 2.12132 -2.12132 
C 1.55874 -2.683901 0.795609 -3 0 -3 
C -0.795609 -3 -1.55874 -2.683901 -2.12132 -2.12132 
C -2.683901 -1.55874 -3 -0.795609 -3 0 
C -3 0.795609 -2.683901 1.55874 -2.12132 2.12132 
C -1.55874 2.683901 -0.795609 3 0 3 
z
" style="stroke: #494949"/>
    </defs>
    <g clip-path="url(#pcba7cde2ac)">
     <use xlink:href="#m33ef7dc35b" x="82.883571" y="79.897848" style="fill-opacity: 0; stroke: #494949"/>
     <use xlink:href="#m33ef7dc35b" x="82.883571" y="81.026543" style="fill-opacity: 0; stroke: #494949"/>
     <use xlink:href="#m33ef7dc35b" x="82.883571" y="52.438102" style="fill-opacity: 0; stroke: #494949"/>
     <use xlink:href="#m33ef7dc35b" x="82.883571" y="77.352767" style="fill-opacity: 0; stroke: #494949"/>
     <use xlink:href="#m33ef7dc35b" x="82.883571" y="62.220668" style="fill-opacity: 0; stroke: #494949"/>
    </g>
   </g>
   <g id="patch_4">
    <path d="M 116.571857 215.215754 
L 161.489571 215.215754 
L 161.489571 158.680346 
L 116.571857 158.680346 
L 116.571857 215.215754 
z
" clip-path="url(#pcba7cde2ac)" style="fill: #cc8963; stroke: #494949; stroke-linejoin: miter"/>
   </g>
   <g id="line2d_6">
    <path d="M 139.030714 215.215754 
L 139.030714 224.944362 
" clip-path="url(#pcba7cde2ac)" style="fill: none; stroke: #494949"/>
   </g>
   <g id="line2d_7">
    <path d="M 139.030714 158.680346 
L 139.030714 81.922698 
" clip-path="url(#pcba7cde2ac)" style="fill: none; stroke: #494949"/>
   </g>
   <g id="line2d_8">
    <path d="M 127.801286 224.944362 
L 150.260143 224.944362 
" clip-path="url(#pcba7cde2ac)" style="fill: none; stroke: #494949; stroke-linecap: round"/>
   </g>
   <g id="line2d_9">
    <path d="M 127.801286 81.922698 
L 150.260143 81.922698 
" clip-path="url(#pcba7cde2ac)" style="fill: none; stroke: #494949; stroke-linecap: round"/>
   </g>
   <g id="line2d_10">
    <g clip-path="url(#pcba7cde2ac)">
     <use xlink:href="#m33ef7dc35b" x="139.030714" y="40.368051" style="fill-opacity: 0; stroke: #494949"/>
     <use xlink:href="#m33ef7dc35b" x="139.030714" y="62.127232" style="fill-opacity: 0; stroke: #494949"/>
     <use xlink:href="#m33ef7dc35b" x="139.030714" y="68.756109" style="fill-opacity: 0; stroke: #494949"/>
     <use xlink:href="#m33ef7dc35b" x="139.030714" y="49.953106" style="fill-opacity: 0; stroke: #494949"/>
     <use xlink:href="#m33ef7dc35b" x="139.030714" y="61.759037" style="fill-opacity: 0; stroke: #494949"/>
     <use xlink:href="#m33ef7dc35b" x="139.030714" y="65.559449" style="fill-opacity: 0; stroke: #494949"/>
    </g>
   </g>
   <g id="patch_5">
    <path d="M 172.719 224.043994 
L 217.636714 224.043994 
L 217.636714 219.554085 
L 172.719 219.554085 
L 172.719 224.043994 
z
" clip-path="url(#pcba7cde2ac)" style="fill: #5f9e6e; stroke: #494949; stroke-linejoin: miter"/>
   </g>
   <g id="line2d_11">
    <path d="M 195.177857 224.043994 
L 195.177857 226.223187 
" clip-path="url(#pcba7cde2ac)" style="fill: none; stroke: #494949"/>
   </g>
   <g id="line2d_12">
    <path d="M 195.177857 219.554085 
L 195.177857 215.106547 
" clip-path="url(#pcba7cde2ac)" style="fill: none; stroke: #494949"/>
   </g>
   <g id="line2d_13">
    <path d="M 183.948429 226.223187 
L 206.407286 226.223187 
" clip-path="url(#pcba7cde2ac)" style="fill: none; stroke: #494949; stroke-linecap: round"/>
   </g>
   <g id="line2d_14">
    <path d="M 183.948429 215.106547 
L 206.407286 215.106547 
" clip-path="url(#pcba7cde2ac)" style="fill: none; stroke: #494949; stroke-linecap: round"/>
   </g>
   <g id="line2d_15">
    <g clip-path="url(#pcba7cde2ac)">
     <use xlink:href="#m33ef7dc35b" x="195.177857" y="208.844272" style="fill-opacity: 0; stroke: #494949"/>
     <use xlink:href="#m33ef7dc35b" x="195.177857" y="166.18297" style="fill-opacity: 0; stroke: #494949"/>
     <use xlink:href="#m33ef7dc35b" x="195.177857" y="189.01032" style="fill-opacity: 0; stroke: #494949"/>
     <use xlink:href="#m33ef7dc35b" x="195.177857" y="162.260838" style="fill-opacity: 0; stroke: #494949"/>
     <use xlink:href="#m33ef7dc35b" x="195.177857" y="183.492427" style="fill-opacity: 0; stroke: #494949"/>
     <use xlink:href="#m33ef7dc35b" x="195.177857" y="95.851423" style="fill-opacity: 0; stroke: #494949"/>
     <use xlink:href="#m33ef7dc35b" x="195.177857" y="198.065385" style="fill-opacity: 0; stroke: #494949"/>
     <use xlink:href="#m33ef7dc35b" x="195.177857" y="127.843028" style="fill-opacity: 0; stroke: #494949"/>
     <use xlink:href="#m33ef7dc35b" x="195.177857" y="191.731544" style="fill-opacity: 0; stroke: #494949"/>
     <use xlink:href="#m33ef7dc35b" x="195.177857" y="197.236144" style="fill-opacity: 0; stroke: #494949"/>
     <use xlink:href="#m33ef7dc35b" x="195.177857" y="189.005365" style="fill-opacity: 0; stroke: #494949"/>
     <use xlink:href="#m33ef7dc35b" x="195.177857" y="206.010688" style="fill-opacity: 0; stroke: #494949"/>
     <use xlink:href="#m33ef7dc35b" x="195.177857" y="191.328807" style="fill-opacity: 0; stroke: #494949"/>
     <use xlink:href="#m33ef7dc35b" x="195.177857" y="191.412984" style="fill-opacity: 0; stroke: #494949"/>
     <use xlink:href="#m33ef7dc35b" x="195.177857" y="173.202911" style="fill-opacity: 0; stroke: #494949"/>
     <use xlink:href="#m33ef7dc35b" x="195.177857" y="162.538915" style="fill-opacity: 0; stroke: #494949"/>
     <use xlink:href="#m33ef7dc35b" x="195.177857" y="191.511255" style="fill-opacity: 0; stroke: #494949"/>
     <use xlink:href="#m33ef7dc35b" x="195.177857" y="121.599705" style="fill-opacity: 0; stroke: #494949"/>
     <use xlink:href="#m33ef7dc35b" x="195.177857" y="136.538365" style="fill-opacity: 0; stroke: #494949"/>
     <use xlink:href="#m33ef7dc35b" x="195.177857" y="133.919549" style="fill-opacity: 0; stroke: #494949"/>
     <use xlink:href="#m33ef7dc35b" x="195.177857" y="168.896125" style="fill-opacity: 0; stroke: #494949"/>
     <use xlink:href="#m33ef7dc35b" x="195.177857" y="164.855471" style="fill-opacity: 0; stroke: #494949"/>
     <use xlink:href="#m33ef7dc35b" x="195.177857" y="200.784216" style="fill-opacity: 0; stroke: #494949"/>
     <use xlink:href="#m33ef7dc35b" x="195.177857" y="120.957911" style="fill-opacity: 0; stroke: #494949"/>
     <use xlink:href="#m33ef7dc35b" x="195.177857" y="156.190532" style="fill-opacity: 0; stroke: #494949"/>
     <use xlink:href="#m33ef7dc35b" x="195.177857" y="201.782497" style="fill-opacity: 0; stroke: #494949"/>
     <use xlink:href="#m33ef7dc35b" x="195.177857" y="188.007654" style="fill-opacity: 0; stroke: #494949"/>
     <use xlink:href="#m33ef7dc35b" x="195.177857" y="161.736929" style="fill-opacity: 0; stroke: #494949"/>
     <use xlink:href="#m33ef7dc35b" x="195.177857" y="209.393886" style="fill-opacity: 0; stroke: #494949"/>
     <use xlink:href="#m33ef7dc35b" x="195.177857" y="205.982906" style="fill-opacity: 0; stroke: #494949"/>
     <use xlink:href="#m33ef7dc35b" x="195.177857" y="153.380609" style="fill-opacity: 0; stroke: #494949"/>
     <use xlink:href="#m33ef7dc35b" x="195.177857" y="198.665596" style="fill-opacity: 0; stroke: #494949"/>
     <use xlink:href="#m33ef7dc35b" x="195.177857" y="189.374558" style="fill-opacity: 0; stroke: #494949"/>
     <use xlink:href="#m33ef7dc35b" x="195.177857" y="175.002045" style="fill-opacity: 0; stroke: #494949"/>
     <use xlink:href="#m33ef7dc35b" x="195.177857" y="201.711749" style="fill-opacity: 0; stroke: #494949"/>
     <use xlink:href="#m33ef7dc35b" x="195.177857" y="184.552536" style="fill-opacity: 0; stroke: #494949"/>
     <use xlink:href="#m33ef7dc35b" x="195.177857" y="192.776056" style="fill-opacity: 0; stroke: #494949"/>
     <use xlink:href="#m33ef7dc35b" x="195.177857" y="99.730826" style="fill-opacity: 0; stroke: #494949"/>
     <use xlink:href="#m33ef7dc35b" x="195.177857" y="211.207906" style="fill-opacity: 0; stroke: #494949"/>
     <use xlink:href="#m33ef7dc35b" x="195.177857" y="176.78201" style="fill-opacity: 0; stroke: #494949"/>
     <use xlink:href="#m33ef7dc35b" x="195.177857" y="156.633571" style="fill-opacity: 0; stroke: #494949"/>
     <use xlink:href="#m33ef7dc35b" x="195.177857" y="206.430586" style="fill-opacity: 0; stroke: #494949"/>
    </g>
   </g>
   <g id="patch_6">
    <path d="M 228.866143 215.088438 
L 273.783857 215.088438 
L 273.783857 158.930336 
L 228.866143 158.930336 
L 228.866143 215.088438 
z
" clip-path="url(#pcba7cde2ac)" style="fill: #b55d60; stroke: #494949; stroke-linejoin: miter"/>
   </g>
   <g id="line2d_16">
    <path d="M 251.325 215.088438 
L 251.325 226.282798 
" clip-path="url(#pcba7cde2ac)" style="fill: none; stroke: #494949"/>
   </g>
   <g id="line2d_17">
    <path d="M 251.325 158.930336 
L 251.325 83.209163 
" clip-path="url(#pcba7cde2ac)" style="fill: none; stroke: #494949"/>
   </g>
   <g id="line2d_18">
    <path d="M 240.095571 226.282798 
L 262.554429 226.282798 
" clip-path="url(#pcba7cde2ac)" style="fill: none; stroke: #494949; stroke-linecap: round"/>
   </g>
   <g id="line2d_19">
    <path d="M 240.095571 83.209163 
L 262.554429 83.209163 
" clip-path="url(#pcba7cde2ac)" style="fill: none; stroke: #494949; stroke-linecap: round"/>
   </g>
   <g id="line2d_20">
    <g clip-path="url(#pcba7cde2ac)">
     <use xlink:href="#m33ef7dc35b" x="251.325" y="38.366415" style="fill-opacity: 0; stroke: #494949"/>
     <use xlink:href="#m33ef7dc35b" x="251.325" y="24.564944" style="fill-opacity: 0; stroke: #494949"/>
     <use xlink:href="#m33ef7dc35b" x="251.325" y="67.841967" style="fill-opacity: 0; stroke: #494949"/>
    </g>
   </g>
   <g id="patch_7">
    <path d="M 285.013286 215.378565 
L 329.931 215.378565 
L 329.931 156.477191 
L 285.013286 156.477191 
L 285.013286 215.378565 
z
" clip-path="url(#pcba7cde2ac)" style="fill: #857aab; stroke: #494949; stroke-linejoin: miter"/>
   </g>
   <g id="line2d_21">
    <path d="M 307.472143 215.378565 
L 307.472143 226.392434 
" clip-path="url(#pcba7cde2ac)" style="fill: none; stroke: #494949"/>
   </g>
   <g id="line2d_22">
    <path d="M 307.472143 156.477191 
L 307.472143 87.435872 
" clip-path="url(#pcba7cde2ac)" style="fill: none; stroke: #494949"/>
   </g>
   <g id="line2d_23">
    <path d="M 296.242714 226.392434 
L 318.701571 226.392434 
" clip-path="url(#pcba7cde2ac)" style="fill: none; stroke: #494949; stroke-linecap: round"/>
   </g>
   <g id="line2d_24">
    <path d="M 296.242714 87.435872 
L 318.701571 87.435872 
" clip-path="url(#pcba7cde2ac)" style="fill: none; stroke: #494949; stroke-linecap: round"/>
   </g>
   <g id="line2d_25">
    <g clip-path="url(#pcba7cde2ac)">
     <use xlink:href="#m33ef7dc35b" x="307.472143" y="56.07883" style="fill-opacity: 0; stroke: #494949"/>
     <use xlink:href="#m33ef7dc35b" x="307.472143" y="49.121296" style="fill-opacity: 0; stroke: #494949"/>
     <use xlink:href="#m33ef7dc35b" x="307.472143" y="67.63843" style="fill-opacity: 0; stroke: #494949"/>
     <use xlink:href="#m33ef7dc35b" x="307.472143" y="57.079824" style="fill-opacity: 0; stroke: #494949"/>
    </g>
   </g>
   <g id="patch_8">
    <path d="M 341.160429 212.88478 
L 386.078143 212.88478 
L 386.078143 158.426292 
L 341.160429 158.426292 
L 341.160429 212.88478 
z
" clip-path="url(#pcba7cde2ac)" style="fill: #8d7866; stroke: #494949; stroke-linejoin: miter"/>
   </g>
   <g id="line2d_26">
    <path d="M 363.619286 212.88478 
L 363.619286 226.456081 
" clip-path="url(#pcba7cde2ac)" style="fill: none; stroke: #494949"/>
   </g>
   <g id="line2d_27">
    <path d="M 363.619286 158.426292 
L 363.619286 79.256378 
" clip-path="url(#pcba7cde2ac)" style="fill: none; stroke: #494949"/>
   </g>
   <g id="line2d_28">
    <path d="M 352.389857 226.456081 
L 374.848714 226.456081 
" clip-path="url(#pcba7cde2ac)" style="fill: none; stroke: #494949; stroke-linecap: round"/>
   </g>
   <g id="line2d_29">
    <path d="M 352.389857 79.256378 
L 374.848714 79.256378 
" clip-path="url(#pcba7cde2ac)" style="fill: none; stroke: #494949; stroke-linecap: round"/>
   </g>
   <g id="line2d_30">
    <g clip-path="url(#pcba7cde2ac)">
     <use xlink:href="#m33ef7dc35b" x="363.619286" y="62.103042" style="fill-opacity: 0; stroke: #494949"/>
     <use xlink:href="#m33ef7dc35b" x="363.619286" y="53.68429" style="fill-opacity: 0; stroke: #494949"/>
     <use xlink:href="#m33ef7dc35b" x="363.619286" y="66.062727" style="fill-opacity: 0; stroke: #494949"/>
    </g>
   </g>
   <g id="patch_9">
    <path d="M 397.307571 223.919309 
L 442.225286 223.919309 
L 442.225286 219.57441 
L 397.307571 219.57441 
L 397.307571 223.919309 
z
" clip-path="url(#pcba7cde2ac)" style="fill: #d095bf; stroke: #494949; stroke-linejoin: miter"/>
   </g>
   <g id="line2d_31">
    <path d="M 419.766429 223.919309 
L 419.766429 226.823433 
" clip-path="url(#pcba7cde2ac)" style="fill: none; stroke: #494949"/>
   </g>
   <g id="line2d_32">
    <path d="M 419.766429 219.57441 
L 419.766429 213.794027 
" clip-path="url(#pcba7cde2ac)" style="fill: none; stroke: #494949"/>
   </g>
   <g id="line2d_33">
    <path d="M 408.537 226.823433 
L 430.995857 226.823433 
" clip-path="url(#pcba7cde2ac)" style="fill: none; stroke: #494949; stroke-linecap: round"/>
   </g>
   <g id="line2d_34">
    <path d="M 408.537 213.794027 
L 430.995857 213.794027 
" clip-path="url(#pcba7cde2ac)" style="fill: none; stroke: #494949; stroke-linecap: round"/>
   </g>
   <g id="line2d_35">
    <g clip-path="url(#pcba7cde2ac)">
     <use xlink:href="#m33ef7dc35b" x="419.766429" y="162.162837" style="fill-opacity: 0; stroke: #494949"/>
     <use xlink:href="#m33ef7dc35b" x="419.766429" y="139.286683" style="fill-opacity: 0; stroke: #494949"/>
     <use xlink:href="#m33ef7dc35b" x="419.766429" y="195.57963" style="fill-opacity: 0; stroke: #494949"/>
     <use xlink:href="#m33ef7dc35b" x="419.766429" y="205.547544" style="fill-opacity: 0; stroke: #494949"/>
     <use xlink:href="#m33ef7dc35b" x="419.766429" y="200.675668" style="fill-opacity: 0; stroke: #494949"/>
     <use xlink:href="#m33ef7dc35b" x="419.766429" y="154.812322" style="fill-opacity: 0; stroke: #494949"/>
     <use xlink:href="#m33ef7dc35b" x="419.766429" y="196.209495" style="fill-opacity: 0; stroke: #494949"/>
     <use xlink:href="#m33ef7dc35b" x="419.766429" y="211.263587" style="fill-opacity: 0; stroke: #494949"/>
     <use xlink:href="#m33ef7dc35b" x="419.766429" y="175.767771" style="fill-opacity: 0; stroke: #494949"/>
     <use xlink:href="#m33ef7dc35b" x="419.766429" y="162.905168" style="fill-opacity: 0; stroke: #494949"/>
     <use xlink:href="#m33ef7dc35b" x="419.766429" y="172.604526" style="fill-opacity: 0; stroke: #494949"/>
     <use xlink:href="#m33ef7dc35b" x="419.766429" y="140.664935" style="fill-opacity: 0; stroke: #494949"/>
     <use xlink:href="#m33ef7dc35b" x="419.766429" y="201.508963" style="fill-opacity: 0; stroke: #494949"/>
     <use xlink:href="#m33ef7dc35b" x="419.766429" y="181.443318" style="fill-opacity: 0; stroke: #494949"/>
     <use xlink:href="#m33ef7dc35b" x="419.766429" y="173.085139" style="fill-opacity: 0; stroke: #494949"/>
     <use xlink:href="#m33ef7dc35b" x="419.766429" y="188.250533" style="fill-opacity: 0; stroke: #494949"/>
     <use xlink:href="#m33ef7dc35b" x="419.766429" y="125.024027" style="fill-opacity: 0; stroke: #494949"/>
     <use xlink:href="#m33ef7dc35b" x="419.766429" y="174.972749" style="fill-opacity: 0; stroke: #494949"/>
     <use xlink:href="#m33ef7dc35b" x="419.766429" y="206.118362" style="fill-opacity: 0; stroke: #494949"/>
     <use xlink:href="#m33ef7dc35b" x="419.766429" y="181.832322" style="fill-opacity: 0; stroke: #494949"/>
     <use xlink:href="#m33ef7dc35b" x="419.766429" y="205.242012" style="fill-opacity: 0; stroke: #494949"/>
     <use xlink:href="#m33ef7dc35b" x="419.766429" y="206.11695" style="fill-opacity: 0; stroke: #494949"/>
     <use xlink:href="#m33ef7dc35b" x="419.766429" y="121.95478" style="fill-opacity: 0; stroke: #494949"/>
     <use xlink:href="#m33ef7dc35b" x="419.766429" y="172.782282" style="fill-opacity: 0; stroke: #494949"/>
     <use xlink:href="#m33ef7dc35b" x="419.766429" y="188.086508" style="fill-opacity: 0; stroke: #494949"/>
     <use xlink:href="#m33ef7dc35b" x="419.766429" y="138.738606" style="fill-opacity: 0; stroke: #494949"/>
     <use xlink:href="#m33ef7dc35b" x="419.766429" y="117.815669" style="fill-opacity: 0; stroke: #494949"/>
     <use xlink:href="#m33ef7dc35b" x="419.766429" y="196.171202" style="fill-opacity: 0; stroke: #494949"/>
     <use xlink:href="#m33ef7dc35b" x="419.766429" y="166.800491" style="fill-opacity: 0; stroke: #494949"/>
     <use xlink:href="#m33ef7dc35b" x="419.766429" y="188.881237" style="fill-opacity: 0; stroke: #494949"/>
     <use xlink:href="#m33ef7dc35b" x="419.766429" y="192.738654" style="fill-opacity: 0; stroke: #494949"/>
     <use xlink:href="#m33ef7dc35b" x="419.766429" y="202.678548" style="fill-opacity: 0; stroke: #494949"/>
     <use xlink:href="#m33ef7dc35b" x="419.766429" y="205.961744" style="fill-opacity: 0; stroke: #494949"/>
     <use xlink:href="#m33ef7dc35b" x="419.766429" y="120.491345" style="fill-opacity: 0; stroke: #494949"/>
     <use xlink:href="#m33ef7dc35b" x="419.766429" y="181.620529" style="fill-opacity: 0; stroke: #494949"/>
     <use xlink:href="#m33ef7dc35b" x="419.766429" y="174.290938" style="fill-opacity: 0; stroke: #494949"/>
     <use xlink:href="#m33ef7dc35b" x="419.766429" y="149.610092" style="fill-opacity: 0; stroke: #494949"/>
     <use xlink:href="#m33ef7dc35b" x="419.766429" y="168.024102" style="fill-opacity: 0; stroke: #494949"/>
     <use xlink:href="#m33ef7dc35b" x="419.766429" y="204.334464" style="fill-opacity: 0; stroke: #494949"/>
     <use xlink:href="#m33ef7dc35b" x="419.766429" y="211.99041" style="fill-opacity: 0; stroke: #494949"/>
     <use xlink:href="#m33ef7dc35b" x="419.766429" y="157.027022" style="fill-opacity: 0; stroke: #494949"/>
     <use xlink:href="#m33ef7dc35b" x="419.766429" y="183.370173" style="fill-opacity: 0; stroke: #494949"/>
    </g>
   </g>
   <g id="line2d_36">
    <path d="M 60.424714 188.235593 
L 105.342429 188.235593 
" clip-path="url(#pcba7cde2ac)" style="fill: none; stroke: #494949"/>
   </g>
   <g id="line2d_37">
    <path d="M 116.571857 191.146004 
L 161.489571 191.146004 
" clip-path="url(#pcba7cde2ac)" style="fill: none; stroke: #494949"/>
   </g>
   <g id="line2d_38">
    <path d="M 172.719 221.582848 
L 217.636714 221.582848 
" clip-path="url(#pcba7cde2ac)" style="fill: none; stroke: #494949"/>
   </g>
   <g id="line2d_39">
    <path d="M 228.866143 192.930625 
L 273.783857 192.930625 
" clip-path="url(#pcba7cde2ac)" style="fill: none; stroke: #494949"/>
   </g>
   <g id="line2d_40">
    <path d="M 285.013286 189.566454 
L 329.931 189.566454 
" clip-path="url(#pcba7cde2ac)" style="fill: none; stroke: #494949"/>
   </g>
   <g id="line2d_41">
    <path d="M 341.160429 190.776762 
L 386.078143 190.776762 
" clip-path="url(#pcba7cde2ac)" style="fill: none; stroke: #494949"/>
   </g>
   <g id="line2d_42">
    <path d="M 397.307571 222.014033 
L 442.225286 222.014033 
" clip-path="url(#pcba7cde2ac)" style="fill: none; stroke: #494949"/>
   </g>
   <g id="patch_10">
    <path d="M 54.81 236.936357 
L 54.81 14.45202 
" style="fill: none; stroke: #262626; stroke-width: 1.25; stroke-linejoin: miter; stroke-linecap: square"/>
   </g>
   <g id="patch_11">
    <path d="M 447.84 236.936357 
L 447.84 14.45202 
" style="fill: none; stroke: #262626; stroke-width: 1.25; stroke-linejoin: miter; stroke-linecap: square"/>
   </g>
   <g id="patch_12">
    <path d="M 54.81 236.936357 
L 447.84 236.936357 
" style="fill: none; stroke: #262626; stroke-width: 1.25; stroke-linejoin: miter; stroke-linecap: square"/>
   </g>
   <g id="patch_13">
    <path d="M 54.81 14.45202 
L 447.84 14.45202 
" style="fill: none; stroke: #262626; stroke-width: 1.25; stroke-linejoin: miter; stroke-linecap: square"/>
   </g>
  </g>
 </g>
 <defs>
  <clipPath id="pcba7cde2ac">
   <rect x="54.81" y="14.45202" width="393.03" height="222.484337"/>
  </clipPath>
 </defs>
</svg>
