<?xml version="1.0" encoding="utf-8" standalone="no"?>
<!DOCTYPE svg PUBLIC "-//W3C//DTD SVG 1.1//EN"
  "http://www.w3.org/Graphics/SVG/1.1/DTD/svg11.dtd">
<svg xmlns:xlink="http://www.w3.org/1999/xlink" width="432pt" height="216pt" viewBox="0 0 432 216" xmlns="http://www.w3.org/2000/svg" version="1.1">
 <metadata>
  <rdf:RDF xmlns:dc="http://purl.org/dc/elements/1.1/" xmlns:cc="http://creativecommons.org/ns#" xmlns:rdf="http://www.w3.org/1999/02/22-rdf-syntax-ns#">
   <cc:Work>
    <dc:type rdf:resource="http://purl.org/dc/dcmitype/StillImage"/>
    <dc:date>2026-02-09T20:48:51.448555</dc:date>
    <dc:format>image/svg+xml</dc:format>
    <dc:creator>
     <cc:Agent>
      <dc:title>Matplotlib v3.9.1, https://matplotlib.org/</dc:title>
     </cc:Agent>
    </dc:creator>
   </cc:Work>
  </rdf:RDF>
 </metadata>
 <defs>
  <style type="text/css">*{stroke-linejoin: round; stroke-linecap: butt}</style>
 </defs>
 <g id="figure_1">
  <g id="patch_1">
   <path d="M 0 216 
L 432 216 
L 432 0 
L 0 0 
L 0 216 
z
" style="fill: none"/>
  </g>
  <g id="axes_1">
   <g id="patch_2">
    <path d="M 47.81 98.62 
L 288.504 98.62 
L 288.504 14.76 
L 47.81 14.76 
L 47.81 98.62 
z
" style="fill: none"/>
   </g>
   <g id="patch_3">
    <path d="M 87.925667 245.375 
L 87.925667 245.375 
L 87.925667 245.375 
L 87.925667 245.375 
z
" clip-path="url(#p8482413472)" style="fill: #3274a1; stroke: #3d3d3d; stroke-linejoin: miter"/>
   </g>
   <g id="patch_4">
    <path d="M 87.925667 245.375 
L 87.925667 245.375 
L 87.925667 245.375 
L 87.925667 245.375 
z
" clip-path="url(#p8482413472)" style="fill: #e1812c; stroke: #3d3d3d; stroke-linejoin: miter"/>
   </g>
   <g id="patch_5">
    <path d="M 87.925667 245.375 
L 87.925667 245.375 
L 87.925667 245.375 
L 87.925667 245.375 
z
" clip-path="url(#p8482413472)" style="fill: #3a923a; stroke: #3d3d3d; stroke-linejoin: miter"/>
   </g>
   <g id="matplotlib.axis_1">
    <g id="xtick_1">
     <g id="line2d_1">
      <defs>
       <path id="m0039d51142" d="M 0 0 
L 0 3.5 
" style="stroke: #000000; stroke-width: 0.8"/>
      </defs>
      <g>
       <use xlink:href="#m0039d51142" x="87.925667" y="98.62" style="stroke: #000000; stroke-width: 0.8"/>
      </g>
     </g>
     <g id="text_1">
      <!-- GrooD -->
      <g transform="translate(90.685042 137.191875) rotate(-90) scale(0.1 -0.1)">
       <defs>
        <path id="DejaVuSans-47" d="M 3809 666 
L 3809 1919 
L 2778 1919 
L 2778 2438 
L 4434 2438 
L 4434 434 
Q 4069 175 3628 42 
Q 3188 -91 2688 -91 
Q 1594 -91 976 548 
Q 359 1188 359 2328 
Q 359 3472 976 4111 
Q 1594 4750 2688 4750 
Q 3144 4750 3555 4637 
Q 3966 4525 4313 4306 
L 4313 3634 
Q 3963 3931 3569 4081 
Q 3175 4231 2741 4231 
Q 1884 4231 1454 3753 
Q 1025 3275 1025 2328 
Q 1025 1384 1454 906 
Q 1884 428 2741 428 
Q 3075 428 3337 486 
Q 3600 544 3809 666 
z
" transform="scale(0.015625)"/>
        <path id="DejaVuSans-72" d="M 2631 2963 
Q 2534 3019 2420 3045 
Q 2306 3072 2169 3072 
Q 1681 3072 1420 2755 
Q 1159 2438 1159 1844 
L 1159 0 
L 581 0 
L 581 3500 
L 1159 3500 
L 1159 2956 
Q 1341 3275 1631 3429 
Q 1922 3584 2338 3584 
Q 2397 3584 2469 3576 
Q 2541 3569 2628 3553 
L 2631 2963 
z
" transform="scale(0.015625)"/>
        <path id="DejaVuSans-6f" d="M 1959 3097 
Q 1497 3097 1228 2736 
Q 959 2375 959 1747 
Q 959 1119 1226 758 
Q 1494 397 1959 397 
Q 2419 397 2687 759 
Q 2956 1122 2956 1747 
Q 2956 2369 2687 2733 
Q 2419 3097 1959 3097 
z
M 1959 3584 
Q 2709 3584 3137 3096 
Q 3566 2609 3566 1747 
Q 3566 888 3137 398 
Q 2709 -91 1959 -91 
Q 1206 -91 779 398 
Q 353 888 353 1747 
Q 353 2609 779 3096 
Q 1206 3584 1959 3584 
z
" transform="scale(0.015625)"/>
        <path id="DejaVuSans-44" d="M 1259 4147 
L 1259 519 
L 2022 519 
Q 2988 519 3436 956 
Q 3884 1394 3884 2338 
Q 3884 3275 3436 3711 
Q 2988 4147 2022 4147 
L 1259 4147 
z
M 628 4666 
L 1925 4666 
Q 3281 4666 3915 4102 
Q 4550 3538 4550 2338 
Q 4550 1131 3912 565 
Q 3275 0 1925 0 
L 628 0 
L 628 4666 
z
" transform="scale(0.015625)"/>
       </defs>
       <use xlink:href="#DejaVuSans-47"/>
       <use xlink:href="#DejaVuSans-72" x="77.490234"/>
       <use xlink:href="#DejaVuSans-6f" x="116.353516"/>
       <use xlink:href="#DejaVuSans-6f" x="177.535156"/>
       <use xlink:href="#DejaVuSans-44" x="238.716797"/>
      </g>
     </g>
    </g>
    <g id="xtick_2">
     <g id="line2d_2">
      <g>
       <use xlink:href="#m0039d51142" x="168.157" y="98.62" style="stroke: #000000; stroke-width: 0.8"/>
      </g>
     </g>
     <g id="text_2">
      <!-- GrooD_Condition -->
      <g transform="translate(170.777312 189.912188) rotate(-90) scale(0.1 -0.1)">
       <defs>
        <path id="DejaVuSans-5f" d="M 3263 -1063 
L 3263 -1509 
L -63 -1509 
L -63 -1063 
L 3263 -1063 
z
" transform="scale(0.015625)"/>
        <path id="DejaVuSans-43" d="M 4122 4306 
L 4122 3641 
Q 3803 3938 3442 4084 
Q 3081 4231 2675 4231 
Q 1875 4231 1450 3742 
Q 1025 3253 1025 2328 
Q 1025 1406 1450 917 
Q 1875 428 2675 428 
Q 3081 428 3442 575 
Q 3803 722 4122 1019 
L 4122 359 
Q 3791 134 3420 21 
Q 3050 -91 2638 -91 
Q 1578 -91 968 557 
Q 359 1206 359 2328 
Q 359 3453 968 4101 
Q 1578 4750 2638 4750 
Q 3056 4750 3426 4639 
Q 3797 4528 4122 4306 
z
" transform="scale(0.015625)"/>
        <path id="DejaVuSans-6e" d="M 3513 2113 
L 3513 0 
L 2938 0 
L 2938 2094 
Q 2938 2591 2744 2837 
Q 2550 3084 2163 3084 
Q 1697 3084 1428 2787 
Q 1159 2491 1159 1978 
L 1159 0 
L 581 0 
L 581 3500 
L 1159 3500 
L 1159 2956 
Q 1366 3272 1645 3428 
Q 1925 3584 2291 3584 
Q 2894 3584 3203 3211 
Q 3513 2838 3513 2113 
z
" transform="scale(0.015625)"/>
        <path id="DejaVuSans-64" d="M 2906 2969 
L 2906 4863 
L 3481 4863 
L 3481 0 
L 2906 0 
L 2906 525 
Q 2725 213 2448 61 
Q 2172 -91 1784 -91 
Q 1150 -91 751 415 
Q 353 922 353 1747 
Q 353 2572 751 3078 
Q 1150 3584 1784 3584 
Q 2172 3584 2448 3432 
Q 2725 3281 2906 2969 
z
M 947 1747 
Q 947 1113 1208 752 
Q 1469 391 1925 391 
Q 2381 391 2643 752 
Q 2906 1113 2906 1747 
Q 2906 2381 2643 2742 
Q 2381 3103 1925 3103 
Q 1469 3103 1208 2742 
Q 947 2381 947 1747 
z
" transform="scale(0.015625)"/>
        <path id="DejaVuSans-69" d="M 603 3500 
L 1178 3500 
L 1178 0 
L 603 0 
L 603 3500 
z
M 603 4863 
L 1178 4863 
L 1178 4134 
L 603 4134 
L 603 4863 
z
" transform="scale(0.015625)"/>
        <path id="DejaVuSans-74" d="M 1172 4494 
L 1172 3500 
L 2356 3500 
L 2356 3053 
L 1172 3053 
L 1172 1153 
Q 1172 725 1289 603 
Q 1406 481 1766 481 
L 2356 481 
L 2356 0 
L 1766 0 
Q 1100 0 847 248 
Q 594 497 594 1153 
L 594 3053 
L 172 3053 
L 172 3500 
L 594 3500 
L 594 4494 
L 1172 4494 
z
" transform="scale(0.015625)"/>
       </defs>
       <use xlink:href="#DejaVuSans-47"/>
       <use xlink:href="#DejaVuSans-72" x="77.490234"/>
       <use xlink:href="#DejaVuSans-6f" x="116.353516"/>
       <use xlink:href="#DejaVuSans-6f" x="177.535156"/>
       <use xlink:href="#DejaVuSans-44" x="238.716797"/>
       <use xlink:href="#DejaVuSans-5f" x="315.71875"/>
       <use xlink:href="#DejaVuSans-43" x="365.71875"/>
       <use xlink:href="#DejaVuSans-6f" x="435.542969"/>
       <use xlink:href="#DejaVuSans-6e" x="496.724609"/>
       <use xlink:href="#DejaVuSans-64" x="560.103516"/>
       <use xlink:href="#DejaVuSans-69" x="623.580078"/>
       <use xlink:href="#DejaVuSans-74" x="651.363281"/>
       <use xlink:href="#DejaVuSans-69" x="690.572266"/>
       <use xlink:href="#DejaVuSans-6f" x="718.355469"/>
       <use xlink:href="#DejaVuSans-6e" x="779.537109"/>
      </g>
     </g>
    </g>
    <g id="xtick_3">
     <g id="line2d_3">
      <g>
       <use xlink:href="#m0039d51142" x="248.388333" y="98.62" style="stroke: #000000; stroke-width: 0.8"/>
      </g>
     </g>
     <g id="text_3">
      <!-- GrooD_Individual -->
      <g transform="translate(251.008646 190.895) rotate(-90) scale(0.1 -0.1)">
       <defs>
        <path id="DejaVuSans-49" d="M 628 4666 
L 1259 4666 
L 1259 0 
L 628 0 
L 628 4666 
z
" transform="scale(0.015625)"/>
        <path id="DejaVuSans-76" d="M 191 3500 
L 800 3500 
L 1894 563 
L 2988 3500 
L 3597 3500 
L 2284 0 
L 1503 0 
L 191 3500 
z
" transform="scale(0.015625)"/>
        <path id="DejaVuSans-75" d="M 544 1381 
L 544 3500 
L 1119 3500 
L 1119 1403 
Q 1119 906 1312 657 
Q 1506 409 1894 409 
Q 2359 409 2629 706 
Q 2900 1003 2900 1516 
L 2900 3500 
L 3475 3500 
L 3475 0 
L 2900 0 
L 2900 538 
Q 2691 219 2414 64 
Q 2138 -91 1772 -91 
Q 1169 -91 856 284 
Q 544 659 544 1381 
z
M 1991 3584 
L 1991 3584 
z
" transform="scale(0.015625)"/>
        <path id="DejaVuSans-61" d="M 2194 1759 
Q 1497 1759 1228 1600 
Q 959 1441 959 1056 
Q 959 750 1161 570 
Q 1363 391 1709 391 
Q 2188 391 2477 730 
Q 2766 1069 2766 1631 
L 2766 1759 
L 2194 1759 
z
M 3341 1997 
L 3341 0 
L 2766 0 
L 2766 531 
Q 2569 213 2275 61 
Q 1981 -91 1556 -91 
Q 1019 -91 701 211 
Q 384 513 384 1019 
Q 384 1609 779 1909 
Q 1175 2209 1959 2209 
L 2766 2209 
L 2766 2266 
Q 2766 2663 2505 2880 
Q 2244 3097 1772 3097 
Q 1472 3097 1187 3025 
Q 903 2953 641 2809 
L 641 3341 
Q 956 3463 1253 3523 
Q 1550 3584 1831 3584 
Q 2591 3584 2966 3190 
Q 3341 2797 3341 1997 
z
" transform="scale(0.015625)"/>
        <path id="DejaVuSans-6c" d="M 603 4863 
L 1178 4863 
L 1178 0 
L 603 0 
L 603 4863 
z
" transform="scale(0.015625)"/>
       </defs>
       <use xlink:href="#DejaVuSans-47"/>
       <use xlink:href="#DejaVuSans-72" x="77.490234"/>
       <use xlink:href="#DejaVuSans-6f" x="116.353516"/>
       <use xlink:href="#DejaVuSans-6f" x="177.535156"/>
       <use xlink:href="#DejaVuSans-44" x="238.716797"/>
       <use xlink:href="#DejaVuSans-5f" x="315.71875"/>
       <use xlink:href="#DejaVuSans-49" x="365.71875"/>
       <use xlink:href="#DejaVuSans-6e" x="395.210938"/>
       <use xlink:href="#DejaVuSans-64" x="458.589844"/>
       <use xlink:href="#DejaVuSans-69" x="522.066406"/>
       <use xlink:href="#DejaVuSans-76" x="549.849609"/>
       <use xlink:href="#DejaVuSans-69" x="609.029297"/>
       <use xlink:href="#DejaVuSans-64" x="636.8125"/>
       <use xlink:href="#DejaVuSans-75" x="700.289062"/>
       <use xlink:href="#DejaVuSans-61" x="763.667969"/>
       <use xlink:href="#DejaVuSans-6c" x="824.947266"/>
      </g>
     </g>
    </g>
    <g id="text_4">
     <!-- Tool -->
     <g transform="translate(158.445281 202.493437) scale(0.1 -0.1)">
      <defs>
       <path id="DejaVuSans-54" d="M -19 4666 
L 3928 4666 
L 3928 4134 
L 2272 4134 
L 2272 0 
L 1638 0 
L 1638 4134 
L -19 4134 
L -19 4666 
z
" transform="scale(0.015625)"/>
      </defs>
      <use xlink:href="#DejaVuSans-54"/>
      <use xlink:href="#DejaVuSans-6f" x="44.083984"/>
      <use xlink:href="#DejaVuSans-6f" x="105.265625"/>
      <use xlink:href="#DejaVuSans-6c" x="166.447266"/>
     </g>
    </g>
   </g>
   <g id="matplotlib.axis_2">
    <g id="ytick_1">
     <g id="line2d_4">
      <defs>
       <path id="mc8aa62912c" d="M 0 0 
L -3.5 0 
" style="stroke: #000000; stroke-width: 0.8"/>
      </defs>
      <g>
       <use xlink:href="#mc8aa62912c" x="47.81" y="77.655" style="stroke: #000000; stroke-width: 0.8"/>
      </g>
     </g>
     <g id="text_5">
      <!-- 0.8 -->
      <g transform="translate(24.906875 81.454219) scale(0.1 -0.1)">
       <defs>
        <path id="DejaVuSans-30" d="M 2034 4250 
Q 1547 4250 1301 3770 
Q 1056 3291 1056 2328 
Q 1056 1369 1301 889 
Q 1547 409 2034 409 
Q 2525 409 2770 889 
Q 3016 1369 3016 2328 
Q 3016 3291 2770 3770 
Q 2525 4250 2034 4250 
z
M 2034 4750 
Q 2819 4750 3233 4129 
Q 3647 3509 3647 2328 
Q 3647 1150 3233 529 
Q 2819 -91 2034 -91 
Q 1250 -91 836 529 
Q 422 1150 422 2328 
Q 422 3509 836 4129 
Q 1250 4750 2034 4750 
z
" transform="scale(0.015625)"/>
        <path id="DejaVuSans-2e" d="M 684 794 
L 1344 794 
L 1344 0 
L 684 0 
L 684 794 
z
" transform="scale(0.015625)"/>
        <path id="DejaVuSans-38" d="M 2034 2216 
Q 1584 2216 1326 1975 
Q 1069 1734 1069 1313 
Q 1069 891 1326 650 
Q 1584 409 2034 409 
Q 2484 409 2743 651 
Q 3003 894 3003 1313 
Q 3003 1734 2745 1975 
Q 2488 2216 2034 2216 
z
M 1403 2484 
Q 997 2584 770 2862 
Q 544 3141 544 3541 
Q 544 4100 942 4425 
Q 1341 4750 2034 4750 
Q 2731 4750 3128 4425 
Q 3525 4100 3525 3541 
Q 3525 3141 3298 2862 
Q 3072 2584 2669 2484 
Q 3125 2378 3379 2068 
Q 3634 1759 3634 1313 
Q 3634 634 3220 271 
Q 2806 -91 2034 -91 
Q 1263 -91 848 271 
Q 434 634 434 1313 
Q 434 1759 690 2068 
Q 947 2378 1403 2484 
z
M 1172 3481 
Q 1172 3119 1398 2916 
Q 1625 2713 2034 2713 
Q 2441 2713 2670 2916 
Q 2900 3119 2900 3481 
Q 2900 3844 2670 4047 
Q 2441 4250 2034 4250 
Q 1625 4250 1398 4047 
Q 1172 3844 1172 3481 
z
" transform="scale(0.015625)"/>
       </defs>
       <use xlink:href="#DejaVuSans-30"/>
       <use xlink:href="#DejaVuSans-2e" x="63.623047"/>
       <use xlink:href="#DejaVuSans-38" x="95.410156"/>
      </g>
     </g>
    </g>
    <g id="ytick_2">
     <g id="line2d_5">
      <g>
       <use xlink:href="#mc8aa62912c" x="47.81" y="35.725" style="stroke: #000000; stroke-width: 0.8"/>
      </g>
     </g>
     <g id="text_6">
      <!-- 1.0 -->
      <g transform="translate(24.906875 39.524219) scale(0.1 -0.1)">
       <defs>
        <path id="DejaVuSans-31" d="M 794 531 
L 1825 531 
L 1825 4091 
L 703 3866 
L 703 4441 
L 1819 4666 
L 2450 4666 
L 2450 531 
L 3481 531 
L 3481 0 
L 794 0 
L 794 531 
z
" transform="scale(0.015625)"/>
       </defs>
       <use xlink:href="#DejaVuSans-31"/>
       <use xlink:href="#DejaVuSans-2e" x="63.623047"/>
       <use xlink:href="#DejaVuSans-30" x="95.410156"/>
      </g>
     </g>
    </g>
    <g id="text_7">
     <!-- CCC -->
     <g transform="translate(18.827188 67.164219) rotate(-90) scale(0.1 -0.1)">
      <use xlink:href="#DejaVuSans-43"/>
      <use xlink:href="#DejaVuSans-43" x="69.824219"/>
      <use xlink:href="#DejaVuSans-43" x="139.648438"/>
     </g>
    </g>
   </g>
   <g id="patch_6">
    <path d="M 55.833133 37.784504 
L 77.228156 37.784504 
L 77.228156 36.182326 
L 55.833133 36.182326 
L 55.833133 37.784504 
z
" clip-path="url(#p8482413472)" style="fill: #3274a1; stroke: #3d3d3d; stroke-linejoin: miter"/>
   </g>
   <g id="line2d_6">
    <path d="M 66.530644 37.784504 
L 66.530644 39.874084 
" clip-path="url(#p8482413472)" style="fill: none; stroke: #3d3d3d"/>
   </g>
   <g id="line2d_7">
    <path d="M 66.530644 36.182326 
L 66.530644 35.745814 
" clip-path="url(#p8482413472)" style="fill: none; stroke: #3d3d3d"/>
   </g>
   <g id="line2d_8">
    <path d="M 61.181889 39.874084 
L 71.8794 39.874084 
" clip-path="url(#p8482413472)" style="fill: none; stroke: #3d3d3d; stroke-linecap: square"/>
   </g>
   <g id="line2d_9">
    <path d="M 61.181889 35.745814 
L 71.8794 35.745814 
" clip-path="url(#p8482413472)" style="fill: none; stroke: #3d3d3d; stroke-linecap: square"/>
   </g>
   <g id="line2d_10">
    <defs>
     <path id="mb43f4f2732" d="M 0 3 
C 0.795609 3 1.55874 2.683901 2.12132 2.12132 
C 2.683901 1.55874 3 0.795609 3 0 
C 3 -0.795609 2.683901 -1.55874 2.12132 -2.12132 
C 1.55874 -2.683901 0.795609 -3 0 -3 
C -0.795609 -3 -1.55874 -2.683901 -2.12132 -2.12132 
C -2.683901 -1.55874 -3 -0.795609 -3 0 
C -3 0.795609 -2.683901 1.55874 -2.12132 2.12132 
C -1.55874 2.683901 -0.795609 3 0 3 
z
" style="stroke: #3d3d3d"/>
    </defs>
    <g clip-path="url(#p8482413472)">
     <use xlink:href="#mb43f4f2732" x="66.530644" y="44.406058" style="fill-opacity: 0; stroke: #3d3d3d"/>
     <use xlink:href="#mb43f4f2732" x="66.530644" y="44.697229" style="fill-opacity: 0; stroke: #3d3d3d"/>
     <use xlink:href="#mb43f4f2732" x="66.530644" y="46.606188" style="fill-opacity: 0; stroke: #3d3d3d"/>
     <use xlink:href="#mb43f4f2732" x="66.530644" y="41.487031" style="fill-opacity: 0; stroke: #3d3d3d"/>
     <use xlink:href="#mb43f4f2732" x="66.530644" y="46.395898" style="fill-opacity: 0; stroke: #3d3d3d"/>
    </g>
   </g>
   <g id="patch_7">
    <path d="M 136.064467 38.149813 
L 157.459489 38.149813 
L 157.459489 36.242974 
L 136.064467 36.242974 
L 136.064467 38.149813 
z
" clip-path="url(#p8482413472)" style="fill: #3274a1; stroke: #3d3d3d; stroke-linejoin: miter"/>
   </g>
   <g id="line2d_11">
    <path d="M 146.761978 38.149813 
L 146.761978 40.657549 
" clip-path="url(#p8482413472)" style="fill: none; stroke: #3d3d3d"/>
   </g>
   <g id="line2d_12">
    <path d="M 146.761978 36.242974 
L 146.761978 35.783293 
" clip-path="url(#p8482413472)" style="fill: none; stroke: #3d3d3d"/>
   </g>
   <g id="line2d_13">
    <path d="M 141.413222 40.657549 
L 152.110733 40.657549 
" clip-path="url(#p8482413472)" style="fill: none; stroke: #3d3d3d; stroke-linecap: square"/>
   </g>
   <g id="line2d_14">
    <path d="M 141.413222 35.783293 
L 152.110733 35.783293 
" clip-path="url(#p8482413472)" style="fill: none; stroke: #3d3d3d; stroke-linecap: square"/>
   </g>
   <g id="line2d_15">
    <g clip-path="url(#p8482413472)">
     <use xlink:href="#mb43f4f2732" x="146.761978" y="53.737114" style="fill-opacity: 0; stroke: #3d3d3d"/>
     <use xlink:href="#mb43f4f2732" x="146.761978" y="41.613269" style="fill-opacity: 0; stroke: #3d3d3d"/>
     <use xlink:href="#mb43f4f2732" x="146.761978" y="56.31454" style="fill-opacity: 0; stroke: #3d3d3d"/>
     <use xlink:href="#mb43f4f2732" x="146.761978" y="42.510396" style="fill-opacity: 0; stroke: #3d3d3d"/>
     <use xlink:href="#mb43f4f2732" x="146.761978" y="46.761475" style="fill-opacity: 0; stroke: #3d3d3d"/>
     <use xlink:href="#mb43f4f2732" x="146.761978" y="42.694745" style="fill-opacity: 0; stroke: #3d3d3d"/>
     <use xlink:href="#mb43f4f2732" x="146.761978" y="42.46389" style="fill-opacity: 0; stroke: #3d3d3d"/>
    </g>
   </g>
   <g id="patch_8">
    <path d="M 216.2958 39.845389 
L 237.690822 39.845389 
L 237.690822 36.379522 
L 216.2958 36.379522 
L 216.2958 39.845389 
z
" clip-path="url(#p8482413472)" style="fill: #3274a1; stroke: #3d3d3d; stroke-linejoin: miter"/>
   </g>
   <g id="line2d_16">
    <path d="M 226.993311 39.845389 
L 226.993311 43.450294 
" clip-path="url(#p8482413472)" style="fill: none; stroke: #3d3d3d"/>
   </g>
   <g id="line2d_17">
    <path d="M 226.993311 36.379522 
L 226.993311 35.779301 
" clip-path="url(#p8482413472)" style="fill: none; stroke: #3d3d3d"/>
   </g>
   <g id="line2d_18">
    <path d="M 221.644556 43.450294 
L 232.342067 43.450294 
" clip-path="url(#p8482413472)" style="fill: none; stroke: #3d3d3d; stroke-linecap: square"/>
   </g>
   <g id="line2d_19">
    <path d="M 221.644556 35.779301 
L 232.342067 35.779301 
" clip-path="url(#p8482413472)" style="fill: none; stroke: #3d3d3d; stroke-linecap: square"/>
   </g>
   <g id="line2d_20">
    <g clip-path="url(#p8482413472)">
     <use xlink:href="#mb43f4f2732" x="226.993311" y="47.634478" style="fill-opacity: 0; stroke: #3d3d3d"/>
     <use xlink:href="#mb43f4f2732" x="226.993311" y="45.533817" style="fill-opacity: 0; stroke: #3d3d3d"/>
     <use xlink:href="#mb43f4f2732" x="226.993311" y="54.953805" style="fill-opacity: 0; stroke: #3d3d3d"/>
     <use xlink:href="#mb43f4f2732" x="226.993311" y="64.521649" style="fill-opacity: 0; stroke: #3d3d3d"/>
     <use xlink:href="#mb43f4f2732" x="226.993311" y="46.207614" style="fill-opacity: 0; stroke: #3d3d3d"/>
     <use xlink:href="#mb43f4f2732" x="226.993311" y="52.39005" style="fill-opacity: 0; stroke: #3d3d3d"/>
    </g>
   </g>
   <g id="patch_9">
    <path d="M 77.228156 58.503988 
L 98.623178 58.503988 
L 98.623178 39.996898 
L 77.228156 39.996898 
L 77.228156 58.503988 
z
" clip-path="url(#p8482413472)" style="fill: #e1812c; stroke: #3d3d3d; stroke-linejoin: miter"/>
   </g>
   <g id="line2d_21">
    <path d="M 87.925667 58.503988 
L 87.925667 74.791896 
" clip-path="url(#p8482413472)" style="fill: none; stroke: #3d3d3d"/>
   </g>
   <g id="line2d_22">
    <path d="M 87.925667 39.996898 
L 87.925667 36.090117 
" clip-path="url(#p8482413472)" style="fill: none; stroke: #3d3d3d"/>
   </g>
   <g id="line2d_23">
    <path d="M 82.576911 74.791896 
L 93.274422 74.791896 
" clip-path="url(#p8482413472)" style="fill: none; stroke: #3d3d3d; stroke-linecap: square"/>
   </g>
   <g id="line2d_24">
    <path d="M 82.576911 36.090117 
L 93.274422 36.090117 
" clip-path="url(#p8482413472)" style="fill: none; stroke: #3d3d3d; stroke-linecap: square"/>
   </g>
   <g id="line2d_25">
    <g clip-path="url(#p8482413472)">
     <use xlink:href="#mb43f4f2732" x="87.925667" y="97.155485" style="fill-opacity: 0; stroke: #3d3d3d"/>
    </g>
   </g>
   <g id="patch_10">
    <path d="M 157.459489 58.933837 
L 178.854511 58.933837 
L 178.854511 39.238798 
L 157.459489 39.238798 
L 157.459489 58.933837 
z
" clip-path="url(#p8482413472)" style="fill: #e1812c; stroke: #3d3d3d; stroke-linejoin: miter"/>
   </g>
   <g id="line2d_26">
    <path d="M 168.157 58.933837 
L 168.157 86.656361 
" clip-path="url(#p8482413472)" style="fill: none; stroke: #3d3d3d"/>
   </g>
   <g id="line2d_27">
    <path d="M 168.157 39.238798 
L 168.157 35.9632 
" clip-path="url(#p8482413472)" style="fill: none; stroke: #3d3d3d"/>
   </g>
   <g id="line2d_28">
    <path d="M 162.808244 86.656361 
L 173.505756 86.656361 
" clip-path="url(#p8482413472)" style="fill: none; stroke: #3d3d3d; stroke-linecap: square"/>
   </g>
   <g id="line2d_29">
    <path d="M 162.808244 35.9632 
L 173.505756 35.9632 
" clip-path="url(#p8482413472)" style="fill: none; stroke: #3d3d3d; stroke-linecap: square"/>
   </g>
   <g id="line2d_30">
    <g clip-path="url(#p8482413472)">
     <use xlink:href="#mb43f4f2732" x="168.157" y="94.774029" style="fill-opacity: 0; stroke: #3d3d3d"/>
     <use xlink:href="#mb43f4f2732" x="168.157" y="92.428503" style="fill-opacity: 0; stroke: #3d3d3d"/>
    </g>
   </g>
   <g id="patch_11">
    <path d="M 237.690822 49.724564 
L 259.085844 49.724564 
L 259.085844 38.957475 
L 237.690822 38.957475 
L 237.690822 49.724564 
z
" clip-path="url(#p8482413472)" style="fill: #e1812c; stroke: #3d3d3d; stroke-linejoin: miter"/>
   </g>
   <g id="line2d_31">
    <path d="M 248.388333 49.724564 
L 248.388333 62.799501 
" clip-path="url(#p8482413472)" style="fill: none; stroke: #3d3d3d"/>
   </g>
   <g id="line2d_32">
    <path d="M 248.388333 38.957475 
L 248.388333 36.217462 
" clip-path="url(#p8482413472)" style="fill: none; stroke: #3d3d3d"/>
   </g>
   <g id="line2d_33">
    <path d="M 243.039578 62.799501 
L 253.737089 62.799501 
" clip-path="url(#p8482413472)" style="fill: none; stroke: #3d3d3d; stroke-linecap: square"/>
   </g>
   <g id="line2d_34">
    <path d="M 243.039578 36.217462 
L 253.737089 36.217462 
" clip-path="url(#p8482413472)" style="fill: none; stroke: #3d3d3d; stroke-linecap: square"/>
   </g>
   <g id="line2d_35">
    <g clip-path="url(#p8482413472)">
     <use xlink:href="#mb43f4f2732" x="248.388333" y="106.109898" style="fill-opacity: 0; stroke: #3d3d3d"/>
     <use xlink:href="#mb43f4f2732" x="248.388333" y="104.995939" style="fill-opacity: 0; stroke: #3d3d3d"/>
     <use xlink:href="#mb43f4f2732" x="248.388333" y="96.593016" style="fill-opacity: 0; stroke: #3d3d3d"/>
     <use xlink:href="#mb43f4f2732" x="248.388333" y="84.565622" style="fill-opacity: 0; stroke: #3d3d3d"/>
    </g>
   </g>
   <g id="patch_12">
    <path d="M 98.623178 40.491133 
L 120.0182 40.491133 
L 120.0182 36.543326 
L 98.623178 36.543326 
L 98.623178 40.491133 
z
" clip-path="url(#p8482413472)" style="fill: #3a923a; stroke: #3d3d3d; stroke-linejoin: miter"/>
   </g>
   <g id="line2d_36">
    <path d="M 109.320689 40.491133 
L 109.320689 45.567164 
" clip-path="url(#p8482413472)" style="fill: none; stroke: #3d3d3d"/>
   </g>
   <g id="line2d_37">
    <path d="M 109.320689 36.543326 
L 109.320689 35.932501 
" clip-path="url(#p8482413472)" style="fill: none; stroke: #3d3d3d"/>
   </g>
   <g id="line2d_38">
    <path d="M 103.971933 45.567164 
L 114.669444 45.567164 
" clip-path="url(#p8482413472)" style="fill: none; stroke: #3d3d3d; stroke-linecap: square"/>
   </g>
   <g id="line2d_39">
    <path d="M 103.971933 35.932501 
L 114.669444 35.932501 
" clip-path="url(#p8482413472)" style="fill: none; stroke: #3d3d3d; stroke-linecap: square"/>
   </g>
   <g id="line2d_40">
    <g clip-path="url(#p8482413472)">
     <use xlink:href="#mb43f4f2732" x="109.320689" y="48.630982" style="fill-opacity: 0; stroke: #3d3d3d"/>
    </g>
   </g>
   <g id="patch_13">
    <path d="M 178.854511 37.828622 
L 200.249533 37.828622 
L 200.249533 36.46129 
L 178.854511 36.46129 
L 178.854511 37.828622 
z
" clip-path="url(#p8482413472)" style="fill: #3a923a; stroke: #3d3d3d; stroke-linejoin: miter"/>
   </g>
   <g id="line2d_41">
    <path d="M 189.552022 37.828622 
L 189.552022 39.23451 
" clip-path="url(#p8482413472)" style="fill: none; stroke: #3d3d3d"/>
   </g>
   <g id="line2d_42">
    <path d="M 189.552022 36.46129 
L 189.552022 35.794567 
" clip-path="url(#p8482413472)" style="fill: none; stroke: #3d3d3d"/>
   </g>
   <g id="line2d_43">
    <path d="M 184.203267 39.23451 
L 194.900778 39.23451 
" clip-path="url(#p8482413472)" style="fill: none; stroke: #3d3d3d; stroke-linecap: square"/>
   </g>
   <g id="line2d_44">
    <path d="M 184.203267 35.794567 
L 194.900778 35.794567 
" clip-path="url(#p8482413472)" style="fill: none; stroke: #3d3d3d; stroke-linecap: square"/>
   </g>
   <g id="line2d_45">
    <g clip-path="url(#p8482413472)">
     <use xlink:href="#mb43f4f2732" x="189.552022" y="42.242173" style="fill-opacity: 0; stroke: #3d3d3d"/>
     <use xlink:href="#mb43f4f2732" x="189.552022" y="40.011507" style="fill-opacity: 0; stroke: #3d3d3d"/>
     <use xlink:href="#mb43f4f2732" x="189.552022" y="40.924167" style="fill-opacity: 0; stroke: #3d3d3d"/>
     <use xlink:href="#mb43f4f2732" x="189.552022" y="42.683859" style="fill-opacity: 0; stroke: #3d3d3d"/>
     <use xlink:href="#mb43f4f2732" x="189.552022" y="40.703901" style="fill-opacity: 0; stroke: #3d3d3d"/>
     <use xlink:href="#mb43f4f2732" x="189.552022" y="42.847285" style="fill-opacity: 0; stroke: #3d3d3d"/>
     <use xlink:href="#mb43f4f2732" x="189.552022" y="41.116615" style="fill-opacity: 0; stroke: #3d3d3d"/>
     <use xlink:href="#mb43f4f2732" x="189.552022" y="46.118438" style="fill-opacity: 0; stroke: #3d3d3d"/>
    </g>
   </g>
   <g id="patch_14">
    <path d="M 259.085844 38.518134 
L 280.480867 38.518134 
L 280.480867 36.717443 
L 259.085844 36.717443 
L 259.085844 38.518134 
z
" clip-path="url(#p8482413472)" style="fill: #3a923a; stroke: #3d3d3d; stroke-linejoin: miter"/>
   </g>
   <g id="line2d_46">
    <path d="M 269.783356 38.518134 
L 269.783356 41.044686 
" clip-path="url(#p8482413472)" style="fill: none; stroke: #3d3d3d"/>
   </g>
   <g id="line2d_47">
    <path d="M 269.783356 36.717443 
L 269.783356 35.852485 
" clip-path="url(#p8482413472)" style="fill: none; stroke: #3d3d3d"/>
   </g>
   <g id="line2d_48">
    <path d="M 264.4346 41.044686 
L 275.132111 41.044686 
" clip-path="url(#p8482413472)" style="fill: none; stroke: #3d3d3d; stroke-linecap: square"/>
   </g>
   <g id="line2d_49">
    <path d="M 264.4346 35.852485 
L 275.132111 35.852485 
" clip-path="url(#p8482413472)" style="fill: none; stroke: #3d3d3d; stroke-linecap: square"/>
   </g>
   <g id="line2d_50">
    <g clip-path="url(#p8482413472)">
     <use xlink:href="#mb43f4f2732" x="269.783356" y="55.002927" style="fill-opacity: 0; stroke: #3d3d3d"/>
     <use xlink:href="#mb43f4f2732" x="269.783356" y="45.871459" style="fill-opacity: 0; stroke: #3d3d3d"/>
     <use xlink:href="#mb43f4f2732" x="269.783356" y="49.781005" style="fill-opacity: 0; stroke: #3d3d3d"/>
     <use xlink:href="#mb43f4f2732" x="269.783356" y="46.470815" style="fill-opacity: 0; stroke: #3d3d3d"/>
     <use xlink:href="#mb43f4f2732" x="269.783356" y="47.339682" style="fill-opacity: 0; stroke: #3d3d3d"/>
     <use xlink:href="#mb43f4f2732" x="269.783356" y="49.818759" style="fill-opacity: 0; stroke: #3d3d3d"/>
    </g>
   </g>
   <g id="line2d_51">
    <path d="M 55.833133 36.545007 
L 77.228156 36.545007 
" clip-path="url(#p8482413472)" style="fill: none; stroke: #3d3d3d"/>
   </g>
   <g id="line2d_52">
    <path d="M 136.064467 37.00634 
L 157.459489 37.00634 
" clip-path="url(#p8482413472)" style="fill: none; stroke: #3d3d3d"/>
   </g>
   <g id="line2d_53">
    <path d="M 216.2958 37.487986 
L 237.690822 37.487986 
" clip-path="url(#p8482413472)" style="fill: none; stroke: #3d3d3d"/>
   </g>
   <g id="line2d_54">
    <path d="M 77.228156 42.675135 
L 98.623178 42.675135 
" clip-path="url(#p8482413472)" style="fill: none; stroke: #3d3d3d"/>
   </g>
   <g id="line2d_55">
    <path d="M 157.459489 42.913256 
L 178.854511 42.913256 
" clip-path="url(#p8482413472)" style="fill: none; stroke: #3d3d3d"/>
   </g>
   <g id="line2d_56">
    <path d="M 237.690822 42.2646 
L 259.085844 42.2646 
" clip-path="url(#p8482413472)" style="fill: none; stroke: #3d3d3d"/>
   </g>
   <g id="line2d_57">
    <path d="M 98.623178 37.874242 
L 120.0182 37.874242 
" clip-path="url(#p8482413472)" style="fill: none; stroke: #3d3d3d"/>
   </g>
   <g id="line2d_58">
    <path d="M 178.854511 36.838736 
L 200.249533 36.838736 
" clip-path="url(#p8482413472)" style="fill: none; stroke: #3d3d3d"/>
   </g>
   <g id="line2d_59">
    <path d="M 259.085844 37.391183 
L 280.480867 37.391183 
" clip-path="url(#p8482413472)" style="fill: none; stroke: #3d3d3d"/>
   </g>
   <g id="patch_15">
    <path d="M 47.81 98.62 
L 47.81 14.76 
" style="fill: none; stroke: #000000; stroke-width: 0.8; stroke-linejoin: miter; stroke-linecap: square"/>
   </g>
   <g id="patch_16">
    <path d="M 288.504 98.62 
L 288.504 14.76 
" style="fill: none; stroke: #000000; stroke-width: 0.8; stroke-linejoin: miter; stroke-linecap: square"/>
   </g>
   <g id="patch_17">
    <path d="M 47.81 98.62 
L 288.504 98.62 
" style="fill: none; stroke: #000000; stroke-width: 0.8; stroke-linejoin: miter; stroke-linecap: square"/>
   </g>
   <g id="patch_18">
    <path d="M 47.81 14.76 
L 288.504 14.76 
" style="fill: none; stroke: #000000; stroke-width: 0.8; stroke-linejoin: miter; stroke-linecap: square"/>
   </g>
   <g id="legend_1">
    <g id="patch_19">
     <path d="M 295.31788 76.4725 
L 417.241317 76.4725 
Q 419.241317 76.4725 419.241317 74.4725 
L 419.241317 16.76 
Q 419.241317 14.76 417.241317 14.76 
L 295.31788 14.76 
Q 293.31788 14.76 293.31788 16.76 
L 293.31788 74.4725 
Q 293.31788 76.4725 295.31788 76.4725 
z
" style="fill: #ffffff; opacity: 0.8; stroke: #cccccc; stroke-linejoin: miter"/>
    </g>
    <g id="text_8">
     <!-- Pseudobulk -->
     <g transform="translate(327.641317 26.358437) scale(0.1 -0.1)">
      <defs>
       <path id="DejaVuSans-50" d="M 1259 4147 
L 1259 2394 
L 2053 2394 
Q 2494 2394 2734 2622 
Q 2975 2850 2975 3272 
Q 2975 3691 2734 3919 
Q 2494 4147 2053 4147 
L 1259 4147 
z
M 628 4666 
L 2053 4666 
Q 2838 4666 3239 4311 
Q 3641 3956 3641 3272 
Q 3641 2581 3239 2228 
Q 2838 1875 2053 1875 
L 1259 1875 
L 1259 0 
L 628 0 
L 628 4666 
z
" transform="scale(0.015625)"/>
       <path id="DejaVuSans-73" d="M 2834 3397 
L 2834 2853 
Q 2591 2978 2328 3040 
Q 2066 3103 1784 3103 
Q 1356 3103 1142 2972 
Q 928 2841 928 2578 
Q 928 2378 1081 2264 
Q 1234 2150 1697 2047 
L 1894 2003 
Q 2506 1872 2764 1633 
Q 3022 1394 3022 966 
Q 3022 478 2636 193 
Q 2250 -91 1575 -91 
Q 1294 -91 989 -36 
Q 684 19 347 128 
L 347 722 
Q 666 556 975 473 
Q 1284 391 1588 391 
Q 1994 391 2212 530 
Q 2431 669 2431 922 
Q 2431 1156 2273 1281 
Q 2116 1406 1581 1522 
L 1381 1569 
Q 847 1681 609 1914 
Q 372 2147 372 2553 
Q 372 3047 722 3315 
Q 1072 3584 1716 3584 
Q 2034 3584 2315 3537 
Q 2597 3491 2834 3397 
z
" transform="scale(0.015625)"/>
       <path id="DejaVuSans-65" d="M 3597 1894 
L 3597 1613 
L 953 1613 
Q 991 1019 1311 708 
Q 1631 397 2203 397 
Q 2534 397 2845 478 
Q 3156 559 3463 722 
L 3463 178 
Q 3153 47 2828 -22 
Q 2503 -91 2169 -91 
Q 1331 -91 842 396 
Q 353 884 353 1716 
Q 353 2575 817 3079 
Q 1281 3584 2069 3584 
Q 2775 3584 3186 3129 
Q 3597 2675 3597 1894 
z
M 3022 2063 
Q 3016 2534 2758 2815 
Q 2500 3097 2075 3097 
Q 1594 3097 1305 2825 
Q 1016 2553 972 2059 
L 3022 2063 
z
" transform="scale(0.015625)"/>
       <path id="DejaVuSans-62" d="M 3116 1747 
Q 3116 2381 2855 2742 
Q 2594 3103 2138 3103 
Q 1681 3103 1420 2742 
Q 1159 2381 1159 1747 
Q 1159 1113 1420 752 
Q 1681 391 2138 391 
Q 2594 391 2855 752 
Q 3116 1113 3116 1747 
z
M 1159 2969 
Q 1341 3281 1617 3432 
Q 1894 3584 2278 3584 
Q 2916 3584 3314 3078 
Q 3713 2572 3713 1747 
Q 3713 922 3314 415 
Q 2916 -91 2278 -91 
Q 1894 -91 1617 61 
Q 1341 213 1159 525 
L 1159 0 
L 581 0 
L 581 4863 
L 1159 4863 
L 1159 2969 
z
" transform="scale(0.015625)"/>
       <path id="DejaVuSans-6b" d="M 581 4863 
L 1159 4863 
L 1159 1991 
L 2875 3500 
L 3609 3500 
L 1753 1863 
L 3688 0 
L 2938 0 
L 1159 1709 
L 1159 0 
L 581 0 
L 581 4863 
z
" transform="scale(0.015625)"/>
      </defs>
      <use xlink:href="#DejaVuSans-50"/>
      <use xlink:href="#DejaVuSans-73" x="58.552734"/>
      <use xlink:href="#DejaVuSans-65" x="110.652344"/>
      <use xlink:href="#DejaVuSans-75" x="172.175781"/>
      <use xlink:href="#DejaVuSans-64" x="235.554688"/>
      <use xlink:href="#DejaVuSans-6f" x="299.03125"/>
      <use xlink:href="#DejaVuSans-62" x="360.212891"/>
      <use xlink:href="#DejaVuSans-75" x="423.689453"/>
      <use xlink:href="#DejaVuSans-6c" x="487.068359"/>
      <use xlink:href="#DejaVuSans-6b" x="514.851562"/>
     </g>
    </g>
    <g id="patch_20">
     <path d="M 297.31788 41.036562 
L 317.31788 41.036562 
L 317.31788 34.036562 
L 297.31788 34.036562 
z
" style="fill: #3274a1; stroke: #3d3d3d; stroke-linejoin: miter"/>
    </g>
    <g id="text_9">
     <!-- canonical -->
     <g transform="translate(325.31788 41.036562) scale(0.1 -0.1)">
      <defs>
       <path id="DejaVuSans-63" d="M 3122 3366 
L 3122 2828 
Q 2878 2963 2633 3030 
Q 2388 3097 2138 3097 
Q 1578 3097 1268 2742 
Q 959 2388 959 1747 
Q 959 1106 1268 751 
Q 1578 397 2138 397 
Q 2388 397 2633 464 
Q 2878 531 3122 666 
L 3122 134 
Q 2881 22 2623 -34 
Q 2366 -91 2075 -91 
Q 1284 -91 818 406 
Q 353 903 353 1747 
Q 353 2603 823 3093 
Q 1294 3584 2113 3584 
Q 2378 3584 2631 3529 
Q 2884 3475 3122 3366 
z
" transform="scale(0.015625)"/>
      </defs>
      <use xlink:href="#DejaVuSans-63"/>
      <use xlink:href="#DejaVuSans-61" x="54.980469"/>
      <use xlink:href="#DejaVuSans-6e" x="116.259766"/>
      <use xlink:href="#DejaVuSans-6f" x="179.638672"/>
      <use xlink:href="#DejaVuSans-6e" x="240.820312"/>
      <use xlink:href="#DejaVuSans-69" x="304.199219"/>
      <use xlink:href="#DejaVuSans-63" x="331.982422"/>
      <use xlink:href="#DejaVuSans-61" x="386.962891"/>
      <use xlink:href="#DejaVuSans-6c" x="448.242188"/>
     </g>
    </g>
    <g id="patch_21">
     <path d="M 297.31788 55.714687 
L 317.31788 55.714687 
L 317.31788 48.714687 
L 297.31788 48.714687 
z
" style="fill: #e1812c; stroke: #3d3d3d; stroke-linejoin: miter"/>
    </g>
    <g id="text_10">
     <!-- individual-specific -->
     <g transform="translate(325.31788 55.714687) scale(0.1 -0.1)">
      <defs>
       <path id="DejaVuSans-2d" d="M 313 2009 
L 1997 2009 
L 1997 1497 
L 313 1497 
L 313 2009 
z
" transform="scale(0.015625)"/>
       <path id="DejaVuSans-70" d="M 1159 525 
L 1159 -1331 
L 581 -1331 
L 581 3500 
L 1159 3500 
L 1159 2969 
Q 1341 3281 1617 3432 
Q 1894 3584 2278 3584 
Q 2916 3584 3314 3078 
Q 3713 2572 3713 1747 
Q 3713 922 3314 415 
Q 2916 -91 2278 -91 
Q 1894 -91 1617 61 
Q 1341 213 1159 525 
z
M 3116 1747 
Q 3116 2381 2855 2742 
Q 2594 3103 2138 3103 
Q 1681 3103 1420 2742 
Q 1159 2381 1159 1747 
Q 1159 1113 1420 752 
Q 1681 391 2138 391 
Q 2594 391 2855 752 
Q 3116 1113 3116 1747 
z
" transform="scale(0.015625)"/>
       <path id="DejaVuSans-66" d="M 2375 4863 
L 2375 4384 
L 1825 4384 
Q 1516 4384 1395 4259 
Q 1275 4134 1275 3809 
L 1275 3500 
L 2222 3500 
L 2222 3053 
L 1275 3053 
L 1275 0 
L 697 0 
L 697 3053 
L 147 3053 
L 147 3500 
L 697 3500 
L 697 3744 
Q 697 4328 969 4595 
Q 1241 4863 1831 4863 
L 2375 4863 
z
" transform="scale(0.015625)"/>
      </defs>
      <use xlink:href="#DejaVuSans-69"/>
      <use xlink:href="#DejaVuSans-6e" x="27.783203"/>
      <use xlink:href="#DejaVuSans-64" x="91.162109"/>
      <use xlink:href="#DejaVuSans-69" x="154.638672"/>
      <use xlink:href="#DejaVuSans-76" x="182.421875"/>
      <use xlink:href="#DejaVuSans-69" x="241.601562"/>
      <use xlink:href="#DejaVuSans-64" x="269.384766"/>
      <use xlink:href="#DejaVuSans-75" x="332.861328"/>
      <use xlink:href="#DejaVuSans-61" x="396.240234"/>
      <use xlink:href="#DejaVuSans-6c" x="457.519531"/>
      <use xlink:href="#DejaVuSans-2d" x="485.302734"/>
      <use xlink:href="#DejaVuSans-73" x="521.386719"/>
      <use xlink:href="#DejaVuSans-70" x="573.486328"/>
      <use xlink:href="#DejaVuSans-65" x="636.962891"/>
      <use xlink:href="#DejaVuSans-63" x="698.486328"/>
      <use xlink:href="#DejaVuSans-69" x="753.466797"/>
      <use xlink:href="#DejaVuSans-66" x="781.25"/>
      <use xlink:href="#DejaVuSans-69" x="816.455078"/>
      <use xlink:href="#DejaVuSans-63" x="844.238281"/>
     </g>
    </g>
    <g id="patch_22">
     <path d="M 297.31788 70.392812 
L 317.31788 70.392812 
L 317.31788 63.392812 
L 297.31788 63.392812 
z
" style="fill: #3a923a; stroke: #3d3d3d; stroke-linejoin: miter"/>
    </g>
    <g id="text_11">
     <!-- condition-specific -->
     <g transform="translate(325.31788 70.392812) scale(0.1 -0.1)">
      <use xlink:href="#DejaVuSans-63"/>
      <use xlink:href="#DejaVuSans-6f" x="54.980469"/>
      <use xlink:href="#DejaVuSans-6e" x="116.162109"/>
      <use xlink:href="#DejaVuSans-64" x="179.541016"/>
      <use xlink:href="#DejaVuSans-69" x="243.017578"/>
      <use xlink:href="#DejaVuSans-74" x="270.800781"/>
      <use xlink:href="#DejaVuSans-69" x="310.009766"/>
      <use xlink:href="#DejaVuSans-6f" x="337.792969"/>
      <use xlink:href="#DejaVuSans-6e" x="398.974609"/>
      <use xlink:href="#DejaVuSans-2d" x="462.353516"/>
      <use xlink:href="#DejaVuSans-73" x="498.4375"/>
      <use xlink:href="#DejaVuSans-70" x="550.537109"/>
      <use xlink:href="#DejaVuSans-65" x="614.013672"/>
      <use xlink:href="#DejaVuSans-63" x="675.537109"/>
      <use xlink:href="#DejaVuSans-69" x="730.517578"/>
      <use xlink:href="#DejaVuSans-66" x="758.300781"/>
      <use xlink:href="#DejaVuSans-69" x="793.505859"/>
      <use xlink:href="#DejaVuSans-63" x="821.289062"/>
     </g>
    </g>
   </g>
  </g>
 </g>
 <defs>
  <clipPath id="p8482413472">
   <rect x="47.81" y="14.76" width="240.694" height="83.86"/>
  </clipPath>
 </defs>
</svg>
